<?xml version="1.0" encoding="UTF-8" standalone="no"?>
<svg
   xmlns:dc="http://purl.org/dc/elements/1.1/"
   xmlns:cc="http://creativecommons.org/ns#"
   xmlns:rdf="http://www.w3.org/1999/02/22-rdf-syntax-ns#"
   xmlns:svg="http://www.w3.org/2000/svg"
   xmlns="http://www.w3.org/2000/svg"
   xmlns:sodipodi="http://sodipodi.sourceforge.net/DTD/sodipodi-0.dtd"
   xmlns:inkscape="http://www.inkscape.org/namespaces/inkscape"
   width="154.94389mm"
   height="153.52229mm"
   viewBox="0 0 154.94389 153.52229"
   version="1.1"
   id="svg8"
   inkscape:version="1.0.2-2 (e86c870879, 2021-01-15)"
   sodipodi:docname="redit.svg">
  <defs
     id="defs2" />
  <sodipodi:namedview
     id="base"
     pagecolor="#ffffff"
     bordercolor="#666666"
     borderopacity="1.0"
     inkscape:pageopacity="0.0"
     inkscape:pageshadow="2"
     inkscape:zoom="0.49497475"
     inkscape:cx="645.06423"
     inkscape:cy="368.26305"
     inkscape:document-units="mm"
     inkscape:current-layer="layer1"
     inkscape:document-rotation="0"
     showgrid="false"
     inkscape:window-width="1560"
     inkscape:window-height="1041"
     inkscape:window-x="2375"
     inkscape:window-y="15"
     inkscape:window-maximized="0" />
  <metadata
     id="metadata5">
    <rdf:RDF>
      <cc:Work
         rdf:about="">
        <dc:format>image/svg+xml</dc:format>
        <dc:type
           rdf:resource="http://purl.org/dc/dcmitype/StillImage" />
        <dc:title></dc:title>
      </cc:Work>
    </rdf:RDF>
  </metadata>
  <g
     inkscape:label="Warstwa 1"
     inkscape:groupmode="layer"
     id="layer1">
    <path
       style="fill:#7b0000;stroke-width:0.53454"
       d="M 22.494564,152.35209 C 12.414053,149.63703 4.135664,141.15968 1.771051,131.13052 1.104855,128.30495 0.98083801,119.9061 0.97416601,77.162896 0.96875301,42.480339 1.150893,25.649741 1.552641,23.708991 3.5042,14.281481 10.592463,6.2036359 20.201612,2.4564619 l 3.482563,-1.358056 53.039018,-0.14855203 c 58.459057,-0.163733 56.595217,-0.256555 63.356877,3.15525903 6.73639,3.399067 13.13493,11.4700121 14.791,18.6569881 0.35751,1.551513 0.55544,20.695842 0.56391,54.544736 0.0116,46.200833 -0.0843,52.485583 -0.83972,55.057523 -2.85152,9.70808 -10.75743,17.41516 -20.53281,20.01645 -4.28808,1.14109 -107.323093,1.11456 -111.567886,-0.0287 z M 108.40862,109.60983 V 83.150149 h 7.38752 7.38752 l 0.67321,-6.548101 c 0.37027,-3.601458 0.80781,-7.690681 0.9723,-9.087165 l 0.29907,-2.539061 h -8.42302 -8.42302 l 0.21541,-6.913395 c 0.30058,-9.647341 0.93565,-10.183352 12.07177,-10.188872 l 6.01357,-0.003 v -9.087157 -9.087165 l -10.82442,0.0041 c -12.191,0.0046 -16.397273,0.511669 -20.869203,2.516057 -4.17403,1.870869 -7.899692,5.970911 -9.473659,10.425637 -0.997355,2.82276 -1.229548,4.869341 -1.457415,12.84578 l -0.271055,9.488066 h -4.744542 -4.74454 v 9.087165 9.087162 h 4.810849 4.810853 v 26.45968 26.45969 h 12.294399 12.294403 v -26.4597 z"
       id="path948" />
  </g>
</svg>
