<svg xmlns="http://www.w3.org/2000/svg" viewBox="0 0 136 154" width="136" height="154">
	<style>
		tspan { white-space:pre }
		.shp0 { fill: #7a0000 } 
		.shp1 { fill: #ffffff } 
	</style>
	<g id="Background">
		<path id="Path 0" class="shp0" d="M21.77 13.33L0.04 26.5C0.94 66.8 1.49 89.96 1.85 103.97L2.5 129.45C36.6 148.44 46.95 153.98 47.5 154.01C48.05 154.04 57.95 148.34 69.5 141.33C81.05 134.33 100.62 122.46 113 114.97L135.5 101.34C135.15 68.91 135.04 57.14 135.03 54.25L135 49C100.51 30.18 80.37 19.14 68 12.34C55.62 5.53 45.05 0.01 44.5 0.06C43.95 0.12 33.72 6.09 21.77 13.33Z" />
		<path id="Path 1" fill-rule="evenodd" class="shp1" d="M25.47 19.99C26.04 19.99 43.15 27.9 63.5 37.56C83.85 47.22 100.95 55.54 101.5 56.04C102.14 56.61 101.41 57.34 99.5 58.03C96.74 59.02 94.67 58.23 74 48.37C61.62 42.47 44.52 34.32 36 30.25C21.61 23.39 20.64 22.76 22.47 21.43C23.56 20.64 24.91 20 25.47 19.99ZM16.07 23.96L19.78 25.85C21.83 26.89 39.02 35.05 58 43.99C76.97 52.93 93.07 60.97 93.77 61.87C94.69 63.05 95.03 68.52 95.02 81.75C95 98.6 94.87 99.97 93.25 99.64C92.29 99.44 74.51 91.23 15.99 63.5L16.03 43.73L16.07 23.96ZM104.5 59.17L104.78 71.33C104.93 78.03 104.93 89.5 104.5 110.17L98 113L97.7 61.9L104.5 59.17ZM16.85 67.26C17.21 67.46 35.02 75.88 95.37 104.29L95.19 109.14C95.08 111.81 94.89 114.01 94.75 114.02C94.61 114.04 77.85 106.14 57.5 96.48C37.15 86.81 19.49 78.25 18.25 77.45C16.43 76.28 16.02 75.14 16.1 71.44C16.16 68.93 16.5 67.05 16.85 67.26ZM35.22 90C35.65 90 38.02 90.9 40.5 92C42.97 93.1 44.99 94.56 44.98 95.25C44.98 95.94 44.64 97.09 44.23 97.81C43.66 98.83 42.18 98.5 37.5 96.32C34.2 94.79 31.27 93.37 31 93.18C30.72 92.99 31.39 92.2 32.47 91.42C33.56 90.64 34.8 90 35.22 90ZM26.5 94.96C27.05 94.95 40.06 100.92 55.42 108.22C70.77 115.53 83.49 122.06 83.67 122.75C83.85 123.44 71.29 117.9 55.75 110.44C40.21 102.98 27.05 96.45 26.5 95.93C25.83 95.29 25.83 94.96 26.5 94.96ZM48.25 95.97C48.39 95.95 51.42 97.28 55 98.91C60.12 101.25 61.66 102.48 62.27 104.69C62.7 106.24 62.93 107.61 62.77 107.75C62.62 107.89 59.01 106.42 54.75 104.5C49.15 101.97 47.14 100.58 47.5 99.5C47.77 98.67 48 97.55 48 97C48 96.45 48.11 95.99 48.25 95.97ZM67.16 104.98C67.9 104.97 69.4 105.59 70.5 106.35C72.48 107.73 72.48 107.75 70.25 108.87C69.01 109.49 67.83 109.89 67.62 109.75C67.42 109.61 66.93 108.49 66.53 107.25C66.03 105.68 66.22 104.99 67.16 104.98ZM78.41 110C79.56 110.41 82.97 111.97 86 113.48C91.21 116.09 91.39 116.3 89.5 117.63C88.4 118.4 86.94 119.03 86.25 119.02C85.56 119.01 82.07 117.54 78.49 115.75C74.91 113.96 71.89 112.23 71.78 111.9C71.67 111.57 72.65 110.85 73.96 110.29C75.26 109.73 77.27 109.6 78.41 110ZM94.25 119.11C94.66 119.05 95 119.67 95 120.5C95 121.32 94.21 122.17 93.25 122.39C92.29 122.6 90.71 123.05 89.75 123.39C88.69 123.76 87.99 123.51 87.98 122.75C87.98 122.06 89.21 120.99 90.73 120.36C92.26 119.73 93.84 119.16 94.25 119.11Z" />
	</g>
</svg>