<?xml version="1.0" encoding="UTF-8" standalone="no"?>
<svg
   xmlns:dc="http://purl.org/dc/elements/1.1/"
   xmlns:cc="http://creativecommons.org/ns#"
   xmlns:rdf="http://www.w3.org/1999/02/22-rdf-syntax-ns#"
   xmlns:svg="http://www.w3.org/2000/svg"
   xmlns="http://www.w3.org/2000/svg"
   xmlns:sodipodi="http://sodipodi.sourceforge.net/DTD/sodipodi-0.dtd"
   xmlns:inkscape="http://www.inkscape.org/namespaces/inkscape"
   width="154.94389mm"
   height="153.52229mm"
   viewBox="0 0 154.94389 153.52229"
   version="1.1"
   id="svg8"
   inkscape:version="1.0.2-2 (e86c870879, 2021-01-15)"
   sodipodi:docname="instagram.svg">
  <defs
     id="defs2" />
  <sodipodi:namedview
     id="base"
     pagecolor="#ffffff"
     bordercolor="#666666"
     borderopacity="1.0"
     inkscape:pageopacity="0.0"
     inkscape:pageshadow="2"
     inkscape:zoom="1.4"
     inkscape:cx="375.75239"
     inkscape:cy="173.72365"
     inkscape:document-units="mm"
     inkscape:current-layer="layer1"
     inkscape:document-rotation="0"
     showgrid="false"
     inkscape:window-width="1920"
     inkscape:window-height="1057"
     inkscape:window-x="1912"
     inkscape:window-y="-8"
     inkscape:window-maximized="1"
     fit-margin-top="0"
     fit-margin-left="0"
     fit-margin-right="0"
     fit-margin-bottom="0" />
  <metadata
     id="metadata5">
    <rdf:RDF>
      <cc:Work
         rdf:about="">
        <dc:format>image/svg+xml</dc:format>
        <dc:type
           rdf:resource="http://purl.org/dc/dcmitype/StillImage" />
        <dc:title></dc:title>
      </cc:Work>
    </rdf:RDF>
  </metadata>
  <g
     inkscape:label="Warstwa 1"
     inkscape:groupmode="layer"
     id="layer1"
     transform="translate(-31.120582,-10.607142)">
    <path
       style="fill:#7b0000;stroke-width:1.01015"
       d="m 341.13058,619.81276 c -27.7792,-0.39565 -55.96245,-1.24435 -62.62946,-1.88598 -46.65258,-4.48987 -78.11321,-16.55683 -104.73112,-40.1704 -32.14597,-28.51768 -48.56101,-64.05999 -53.33036,-115.4724 -4.25232,-45.83899 -3.52376,-237.09408 1.04667,-274.76149 3.64375,-30.03018 14.20809,-58.92781 29.26436,-80.04952 12.997,-18.232872 37.73499,-38.969275 56.91862,-47.711536 26.05313,-11.872794 49.18693,-16.676853 90.02473,-18.694902 26.21461,-1.295426 200.17854,-1.304657 225.76909,-0.01198 43.45983,2.195323 64.85717,6.795368 91.41881,19.653405 43.37842,20.998756 72.45798,60.165213 82.23724,110.763093 5.05435,26.15123 6.11666,53.67549 6.11666,158.48294 0,126.51671 -1.51973,149.2661 -12.09325,181.02803 -8.44465,25.36693 -18.36846,41.51394 -36.81618,59.90351 -6.69369,6.67259 -15.65862,14.51716 -19.92207,17.43238 -20.66443,14.12973 -48.44708,24.21049 -77.1011,27.97564 -25.97954,3.41373 -118.18669,4.91483 -216.17264,3.51921 z m 185.36299,-52.51041 c 30.36309,-1.69912 47.49465,-5.17791 64.3142,-13.05981 10.57831,-4.95716 16.33613,-8.91428 24.94734,-17.1453 15.01679,-14.35379 23.41497,-28.98249 28.84173,-50.23912 5.47985,-21.46459 7.15759,-58.42851 7.14451,-157.4092 -0.009,-68.34423 -1.10078,-115.23102 -3.09305,-132.83506 -3.44501,-30.44062 -12.17975,-51.87635 -28.04129,-68.81547 -22.07987,-23.57989 -46.94678,-32.687854 -96.13374,-35.210736 -25.87158,-1.326997 -203.13908,-1.313887 -227.7894,0.01685 -31.90016,1.72211 -48.76536,5.064453 -65.7744,13.035156 -30.80426,14.43536 -49.5401,40.29769 -56.39241,77.84222 -3.4103,18.68538 -3.82501,31.09598 -4.31106,129.01433 -0.74218,149.51648 0.69792,168.06749 15.35277,197.77001 13.93738,28.24837 38.37972,45.94136 73.24438,53.01913 15.2827,3.1025 30.39739,4.23169 68.18529,5.09398 44.49075,1.01525 174.67569,0.31247 199.50513,-1.07698 z"
       id="path850"
       transform="scale(0.26458333)" />
    <path
       style="fill:#7b0000;stroke-width:1.01015"
       d="m 392.14328,477.82914 c -21.50598,-3.89668 -32.76029,-7.2665 -46.97209,-14.06461 -14.96004,-7.15602 -27.11116,-15.93372 -40.47955,-29.24155 -21.86274,-21.76368 -34.27262,-44.27015 -41.01533,-74.38512 -2.01818,-9.01381 -2.34778,-13.25124 -2.34778,-30.18387 0,-16.95309 0.32924,-21.17599 2.36275,-30.30457 6.52296,-29.28205 19.38244,-52.7039 40.5057,-73.77575 21.33426,-21.28234 44.32287,-34.06604 73.80417,-41.04163 15.71644,-3.71869 40.43289,-4.37956 57.07361,-1.52606 48.35842,8.29238 88.72958,38.10673 109.98833,81.22705 6.54945,13.2846 9.73088,22.47672 12.85316,37.13669 3.23095,15.17014 3.2351,41.36064 0.009,56.56855 -4.5291,21.35011 -12.98024,40.86826 -25.05586,57.8672 -7.52306,10.59028 -23.78128,26.8485 -34.37156,34.37156 -16.36512,11.62528 -37.62745,20.98353 -57.86733,25.46926 -7.34224,1.62726 -42.38731,2.98811 -48.48732,1.88285 z m 30.38205,-51.27991 c 32.62481,-2.59821 65.49039,-27.10515 78.60844,-58.61613 10.30659,-24.75753 10.04831,-53.88687 -0.68773,-77.5647 -11.90675,-26.25975 -33.83003,-45.24343 -62.34082,-53.98176 -8.4013,-2.57494 -10.43316,-2.79083 -26.76904,-2.84433 -15.43221,-0.0505 -18.75975,0.23779 -26.19646,2.26986 -44.68646,12.21049 -74.8504,53.30092 -72.4452,98.68751 1.32838,25.06684 10.19129,45.33754 27.69332,63.33844 12.23858,12.58743 27.28863,21.49053 44.14602,26.1153 7.85658,2.15542 22.20295,3.80207 28.82263,3.30821 1.94454,-0.14507 6.07052,-0.46565 9.16884,-0.7124 z"
       id="path852"
       transform="scale(0.26458333)" />
    <path
       style="fill:#7b0000;stroke-width:0.267269"
       d="m 147.96475,53.655137 c -2.49553,-0.761859 -4.73684,-2.702118 -5.84038,-5.055914 -0.59672,-1.272776 -0.70571,-1.865831 -0.69491,-3.78132 0.0109,-1.938443 0.12015,-2.47909 0.74436,-3.68455 1.5157,-2.92713 3.70372,-4.569246 6.86207,-5.150017 4.53086,-0.833151 9.11633,2.247519 10.30214,6.921312 0.53044,2.090706 0.34718,3.701228 -0.66459,5.840622 -0.92481,1.955506 -2.98774,3.863493 -4.98535,4.610894 -1.50821,0.564292 -4.36537,0.713544 -5.72334,0.298973 z"
       id="path854" />
  </g>
</svg>
