<svg xmlns="http://www.w3.org/2000/svg" viewBox="0 0 484 470" width="484" height="470">
	<style>
		tspan { white-space:pre }
		.shp0 { fill: #010000 } 
		.shp1 { fill: #7b0000 } 
	</style>
	<g id="Background">
		<path id="Path 0" class="shp0" d="M280.5 22.15C260.7 34.3 243.82 44.47 243 44.74C242.17 45.02 223.5 35.3 201.5 23.15C179.5 11 160.82 1.06 160 1.07C159.17 1.08 141.17 12.02 120 25.39L81.5 49.68L81 142C22.49 178.35 4.49 189.83 3.25 190.95L1 193C0.92 276.81 1.18 286.73 2.21 287.61C2.92 288.22 22.3 298.57 45.27 310.61L87.05 332.5L87.5 425.5C145.95 458.05 163.5 468.07 164.21 468.77C164.92 469.46 166.4 470.01 167.5 469.99C168.6 469.97 170.17 469.33 171 468.57C171.82 467.82 189.04 456.8 209.25 444.1L246 421C306.84 455.34 325.71 466.26 327.18 467.41L329.87 469.5C392.1 430.75 410.5 418.82 410.91 418C411.32 417.17 411.4 395.35 411.08 369.5C410.76 343.65 410.62 322.05 410.78 321.5C410.94 320.95 427.37 311.02 447.29 299.44L483.5 278.38C483.5 184.38 483.44 183 481.5 181.09C480.4 180.01 462.4 170.16 441.5 159.2L403.5 139.27C403.5 53.53 403.29 46.86 402 45.58C401.17 44.76 382.72 34.17 361 22.04C338.22 9.32 320.44 0 319 0.02C317.54 0.04 301.59 9.2 280.5 22.15Z" />
		<path id="Path 1" class="shp1" d="M281 28.09C260.37 40.73 242.82 51.06 242 51.04C241.17 51.03 222.5 41.09 200.5 28.95C178.5 16.82 160.05 7.07 159.5 7.29C158.95 7.52 142.17 18 122.22 30.6L85.94 53.5L85.5 145.39L6.5 194.81L6 284L91.5 328.52L92 422C149.35 453.77 166.67 463 167.5 463C168.32 463 183.96 453.59 202.25 442.09C220.54 430.58 236.85 420.65 238.5 420C240.15 419.35 242.74 417.96 244.25 416.91C246.65 415.25 247.29 415.17 249.25 416.35C250.49 417.1 268.37 427.28 289 438.98C309.62 450.68 327.51 460.65 328.75 461.13C330.65 461.87 336.77 458.42 368.52 438.75L406.04 415.5L406 317L479 275L479.05 185.5C464.67 177.55 448.12 168.8 433 160.93C417.87 153.06 403.81 145.59 401.75 144.31L398 142L397.5 48.71C337.05 14.86 319.27 5.05 319 5.07C318.72 5.09 301.62 15.45 281 28.09Z" />
		<path id="Path 2" fill-rule="evenodd" class="shp0" d="M166.87 68.42C167.21 68.61 180.77 76.39 197 85.69C213.22 95 252.26 117.55 283.75 135.81C315.24 154.06 341.22 169 341.5 169C341.77 169 343.12 169.9 347 173L342.75 175.43C340.41 176.76 337.37 178.38 336 179.03C333.96 179.98 332.86 179.88 330 178.44C328.07 177.48 302.65 162.86 273.5 145.97C244.35 129.08 217.12 113.32 213 110.95C208.87 108.58 199.2 102.96 191.5 98.46C183.8 93.95 172.44 87.4 166.26 83.89C158.93 79.72 155.11 76.98 155.28 76C155.42 75.17 157.94 73.05 160.88 71.28C163.82 69.51 166.52 68.23 166.87 68.42ZM144.74 83.01C145.71 83.01 155.5 88.1 166.5 94.32C177.5 100.54 216.87 122.84 254 143.88C296.87 168.18 322.69 183.39 328 189L328.03 242.25C328.04 271.54 327.71 295.83 327.28 296.24C326.85 296.65 324.25 295.68 321.5 294.09C318.75 292.5 314.92 290.31 313 289.22C311.07 288.14 305.45 284.9 300.5 282.02C295.55 279.14 288.57 275.31 285 273.51C281.42 271.71 273.1 266.98 266.5 262.99C259.9 259.01 244.6 250.22 232.5 243.47C220.4 236.72 197.45 223.75 181.5 214.65C165.55 205.55 150.47 196.85 143.5 192.5L143.24 137.75C143 86.07 143.08 83 144.74 83.01ZM351.31 181.75C351.82 181.96 352.16 212.72 352 326L345 329.5C338 333 338 333 337.51 330.75C337.25 329.51 337 297.15 336.89 189.16L340.7 186.84C342.79 185.56 345.83 183.81 347.46 182.95C349.09 182.09 350.82 181.55 351.31 181.75ZM144.25 203.98C144.94 203.98 161.02 212.81 180 223.61C198.97 234.42 229.57 251.9 248 262.47C266.42 273.03 291.62 287.34 304 294.27C316.37 301.19 327.05 307.45 327.71 308.18C328.61 309.16 328.74 312.8 328.21 322.25C327.63 332.6 327.22 335.01 326 335.03C325.17 335.04 315.95 330.15 305.5 324.17C295.05 318.19 277.27 308 266 301.51C254.72 295.03 232.22 282.05 216 272.66C199.77 263.28 181.55 252.82 175.5 249.42C169.45 246.02 160.67 240.98 156 238.22C151.32 235.45 146.49 232.25 145.25 231.1C143.15 229.14 143 228.18 143 216.5C143 207.17 143.32 204 144.25 203.98ZM190 269.05C190.82 269.06 195.77 271.67 201 274.85C209.76 280.18 210.52 280.9 210.81 284.06C211.02 286.36 210.44 288.41 209.06 290.25C207.93 291.76 206.42 292.89 205.72 292.75C205.01 292.61 198.49 288.9 191.21 284.5C183.94 280.1 177.92 276.2 177.84 275.83C177.75 275.47 180.11 273.79 183.09 272.1C186.07 270.42 189.17 269.05 190 269.05ZM179.63 288.38C186.71 292.36 201.27 300.73 212 306.98C222.72 313.23 238.92 322.71 248 328.04C257.07 333.37 273.6 343 284.72 349.45C295.84 355.89 304.95 361.57 304.97 362.08C304.99 362.59 304.44 363.26 303.75 363.59C303.06 363.91 301.37 363.62 300 362.96C298.62 362.29 292.55 358.72 286.5 355.03C280.45 351.33 263.8 341.57 249.5 333.33C235.2 325.09 210.79 311.07 195.25 302.17C170.86 288.21 166.98 285.67 166.88 283.57C166.76 281.27 167.43 281.52 179.63 288.38ZM220.24 286.19L227.87 290.21C232.07 292.43 239.1 296.42 243.5 299.08C251.34 303.82 251.52 304.02 252.26 308.71C252.67 311.35 253.01 314.74 253.01 316.25C253 317.76 252.77 319 252.5 319C252.22 319 243.89 314.16 233.99 308.25C221.55 300.82 215.98 296.96 215.99 295.75C215.99 294.79 216.95 292.24 218.12 290.1L220.24 286.19ZM263.25 310.99C263.94 310.98 266.64 312.33 269.25 313.99C271.86 315.64 274.01 317.56 274.02 318.25C274.04 318.94 272.12 320.56 269.77 321.85C267.42 323.15 265.22 323.82 264.89 323.35C264.55 322.88 263.76 320.36 263.14 317.75C262.51 315.14 262 312.55 262 312C262 311.45 262.56 310.99 263.25 310.99ZM287.5 324.4C288.05 324.57 295.25 328.64 303.5 333.44C311.75 338.25 318.95 342.55 319.5 343C320.1 343.49 318.28 345.19 315 347.22C311.97 349.08 309.05 350.89 308.5 351.23C307.95 351.56 300.52 347.67 292 342.58C281.81 336.5 276.5 332.75 276.5 331.64C276.5 330.68 278.64 328.7 281.5 327.03C284.25 325.42 286.95 324.23 287.5 324.4ZM330.25 350.07C330.66 350.03 331.01 351.24 331.02 352.75C331.04 355.12 329.96 356.16 323.27 360.22C319 362.81 314.94 364.95 314.25 364.97C313.56 364.98 312.89 363.73 312.76 362.18C312.54 359.59 313.22 358.97 321.01 354.75C325.68 352.21 329.84 350.11 330.25 350.07Z" />
	</g>
</svg>