<svg xmlns="http://www.w3.org/2000/svg" viewBox="0 0 589 136" width="589" height="136">
	<style>
		tspan { white-space:pre }
		.shp0 { fill: #3d0909 } 
		.shp1 { opacity: 0.996;fill: #3f0808 } 
		.shp2 { fill: #540707 } 
		.shp3 { opacity: 0.996;fill: #620707 } 
		.shp4 { opacity: 0.996;fill: #6d0606 } 
		.shp5 { fill: #740606 } 
		.shp6 { fill: #860404 } 
		.shp7 { fill: #890404 } 
		.shp8 { fill: #8b0404 } 
		.shp9 { fill: #8f0404 } 
		.shp10 { opacity: 0.996;fill: #a20202 } 
		.shp11 { fill: #aa0202 } 
		.shp12 { fill: #b00202 } 
		.shp13 { opacity: 0.988;fill: #be0101 } 
		.shp14 { opacity: 0.996;fill: #b80101 } 
		.shp15 { opacity: 0.996;fill: #ba0101 } 
		.shp16 { fill: #bd0101 } 
		.shp17 { opacity: 0.996;fill: #bf0101 } 
	</style>
	<g id="Background">
		<path id="Path 0" class="shp0" d="M31.43 1.43C29.53 2.74 29.53 2.8 31.48 5.63L33.47 8.5L34.6 1.5L43.05 10.5C43.19 5.85 43.4 5.29 43.62 6.25C43.83 7.21 45.24 8.26 46.75 8.58C48.26 8.9 50.06 9.35 50.75 9.58C51.44 9.81 52 9.55 52 9C52 8.45 52.56 8.24 53.25 8.53C53.94 8.83 62.04 9.17 71.25 9.28C80.46 9.4 88 9.16 88 8.75C88 8.34 90.03 8.34 92.51 8.75L97.03 9.5C97.01 4.41 97.43 3.22 98 3.5C98.55 3.77 98.98 3.09 98.95 1.98C98.91 -0.01 98.36 -0.04 66.13 0.03C40.55 0.08 32.93 0.39 31.43 1.43ZM109.19 3.75C109.46 7.02 109.85 7.53 112.25 7.75C113.76 7.89 115 7.55 115 7C115 6.37 116.67 6.28 119.51 6.75C123.75 7.45 124.03 7.36 124.01 5.25C124 3.69 124.53 3.08 125.71 3.25C126.7 3.39 127.55 2.75 127.71 1.75C127.97 0.19 126.99 0 118.44 0L108.87 0L109.19 3.75Z" />
		<path id="Path 1" class="shp1" d="M132.22 12C132.18 18.87 132.35 23.94 132.58 23.25C132.87 22.37 135.69 22 142 22L151 22C150.98 9.99 150.64 5.98 150.23 5.34C149.83 4.71 147.81 3.92 145.75 3.59C142.26 3.04 142 3.17 142 5.5C142 6.87 141.66 7.99 141.25 7.97C140.84 7.95 138.82 6.94 136.76 5.72C134.7 4.5 132.85 2.6 132.64 1.5C132.44 0.4 132.25 5.12 132.22 12Z" />
		<path id="Path 2" class="shp0" d="M132.98 1.75C132.96 2.73 134.61 4.48 136.73 5.72C138.8 6.94 140.84 7.95 141.25 7.97C141.66 7.99 142 6.87 142 5.5C142 3.17 142.26 3.04 145.75 3.59C147.81 3.92 149.83 4.71 150.23 5.34C150.64 5.98 150.98 5.04 150.98 3.25L151 0C134.1 0 133 0.21 132.98 1.75ZM160.04 2.75C160.06 4.26 160.85 6.05 161.79 6.72C162.73 7.39 164.74 7.95 166.25 7.97C168.34 7.99 169 7.52 169 6C169 4.9 169.34 3.99 169.75 3.98C170.16 3.97 170.95 4.37 171.5 4.85C172.05 5.34 173.74 6.02 175.25 6.37C177.12 6.8 178 6.6 178.01 5.75C178.02 5.06 178.25 3.49 178.51 2.25C178.99 0.04 178.83 0 169.5 0L160 0L160.04 2.75ZM183.96 2.25C183.93 3.49 184.63 5.17 185.5 6C186.92 7.34 187.08 7.31 187.04 5.75C187.02 4.79 187.34 4 187.75 4.01C188.16 4.01 189.85 4.91 191.5 6C193.15 7.09 194.84 7.99 195.25 7.99C195.66 8 196 6.65 196 5C196 2.33 196.33 2 199 2C200.65 2 202.22 1.55 202.5 1C202.82 0.37 199.5 0 193.5 0C184.33 0 184 0.08 183.96 2.25ZM216.98 4.25L216.97 8.5C224.36 7.33 227.74 6.99 229.25 6.99C231.34 7 232 6.52 232 5C232 3.67 232.5 3.17 233.5 3.5C234.5 3.83 235 3.33 235 2C235 0.15 234.33 0 226 0L217 0L216.98 4.25ZM240.12 3.75C240.18 5.81 240.4 6.71 240.62 5.75C240.83 4.79 241.22 4 241.5 4C241.77 4 243.46 4.9 245.25 6C247.04 7.09 248.84 7.99 249.25 8C249.66 8 249.99 6.76 249.98 5.25C249.97 2.58 250.09 2.52 253.98 3.25C257.58 3.92 258 3.79 258 2C258 0.15 257.33 0 249 0L240 0L240.12 3.75Z" />
		<path id="Path 3" class="shp1" d="M258 2C258 3.79 257.58 3.92 253.98 3.25C250.09 2.52 249.97 2.58 249.98 5.25C249.99 6.76 249.66 8 249.25 8C248.84 7.99 247.04 7.09 245.25 6C243.46 4.9 241.66 4.26 241.25 4.58C240.84 4.9 240.39 8.95 240.25 13.58L240 22L259 22.5C259 5.06 258.77 0 258.5 0C258.22 0 258 0.9 258 2Z" />
		<path id="Path 4" class="shp0" d="M399.26 1.28C398.47 2.17 398.76 3.44 400.34 6L402.5 9.5C402.91 4.14 403.53 3 404.5 3C405.32 3 406.41 4.04 406.91 5.3C407.41 6.57 408.76 8.15 409.91 8.8C411.17 9.53 412 9.6 412 9C412 8.45 413.01 8.24 414.25 8.54C415.49 8.84 419.54 9.18 423.25 9.29C428.1 9.44 430 9.15 430 8.25C430 7.56 431.69 6.73 433.75 6.4C436.38 5.98 437.72 6.2 438.23 7.15C438.7 8 438.97 7.49 438.98 5.75C439 3.58 439.47 2.99 441.25 2.97C443.47 2.94 443.47 2.92 441.5 1.5C439.92 0.37 435.35 0.06 419.92 0.06C405.78 0.06 400.03 0.4 399.26 1.28Z" />
		<path id="Path 5" class="shp1" d="M481.19 9.25L481 19L589 19C589 4.27 588.66 0.13 588.25 0.28C587.84 0.44 586.25 1.22 584.72 2.03C582.92 2.98 581.95 4.29 581.97 5.75C581.99 7.6 581.33 8.1 578.25 8.53C576.19 8.83 572.36 9.05 569.75 9.03C566.59 9.01 565.01 9.42 565.02 10.25C565.03 11.24 564.77 11.24 563.77 10.23C563.07 9.54 561.04 8.97 559.25 8.98C557.32 8.99 556.01 9.51 556.02 10.25C556.03 11.24 555.77 11.24 554.77 10.23C554.07 9.54 552.04 8.97 550.25 8.98C548.46 8.99 547 9.45 547 10C547 10.64 545.47 10.58 542.75 9.83C539.51 8.94 538.44 8.94 538.25 9.83C538.06 10.71 537 10.69 533.93 9.75C530.78 8.78 529.7 8.77 529.18 9.7C528.73 10.49 527.99 10.58 527 9.96C526.17 9.45 524.26 9.02 522.75 9.02C521.24 9.01 520 9.45 520 10C520 10.67 519.33 10.67 518 10C516.9 9.45 514.87 9 513.5 9C512.12 9 510.89 9.52 510.75 10.15C510.56 11.02 509.95 11.02 508.25 10.15C507.01 9.52 505.1 9 504 9C502.9 9 501.85 9.56 501.68 10.25C501.42 11.25 500.56 11.25 497.43 10.27C494.97 9.49 493.41 9.4 493.25 10.02C493.11 10.56 490.52 11 487.5 11L482 11C481.5 1.77 481.3 3.35 481.19 9.25Z" />
		<path id="Path 6" class="shp0" d="M482 5.5L482 11C490.52 11 493.11 10.56 493.25 10.02C493.41 9.4 494.97 9.49 497.43 10.27C500.56 11.25 501.42 11.25 501.68 10.25C501.85 9.56 502.9 9 504 9C505.1 9 507.01 9.52 508.25 10.15C509.95 11.02 510.56 11.02 510.75 10.15C510.89 9.52 512.12 9 513.5 9C514.87 9 516.9 9.45 518 10C519.33 10.67 520 10.67 520 10C520 9.45 521.24 9.01 522.75 9.02C524.26 9.02 526.17 9.45 527 9.96C527.99 10.58 528.73 10.49 529.18 9.7C529.7 8.77 530.78 8.78 533.93 9.75C537 10.69 538.06 10.71 538.25 9.83C538.44 8.94 539.51 8.94 542.75 9.83C545.47 10.58 547 10.64 547 10C547 9.45 548.46 8.99 550.25 8.98C552.04 8.97 554.07 9.54 554.77 10.23C555.77 11.24 556.03 11.24 556.02 10.25C556.01 9.51 557.32 8.99 559.25 8.98C561.04 8.97 563.07 9.54 563.77 10.23C564.77 11.24 565.03 11.24 565.02 10.25C565.01 9.42 566.59 9.01 569.75 9.03C572.36 9.05 576.19 8.83 578.25 8.53C581.44 8.08 582 7.63 582 5.5C582 4.12 582.34 3.01 582.75 3.02C583.16 3.03 584.4 2.37 585.5 1.55C587.28 0.23 581.64 0.06 534.75 0.03L482 0L482 5.5Z" />
		<path id="Path 7" class="shp1" d="M26.75 1.65C24.59 1.92 24.15 2.38 24.69 3.75C25.26 5.2 25.12 5.29 23.94 4.27C22.77 3.27 21.64 3.57 18 5.84C15.52 7.39 12.04 10.3 10.25 12.32C8.46 14.35 7 16.67 7 17.5C7 18.32 8.01 19.18 9.25 19.4C10.49 19.61 14.2 20.29 17.5 20.89C20.8 21.49 24.62 21.98 26 21.98C27.37 21.97 30.3 21.32 32.5 20.53C35.65 19.39 43.14 19.08 67.75 19.04L99 19C99.43 5.39 99.17 3.35 98.25 3.41C97.54 3.46 97.01 4.8 97.01 6.5L97.03 9.5C90.03 8.34 88 8.34 88 8.75C88 9.16 80.46 9.4 71.25 9.28C62.04 9.17 53.94 8.83 53.25 8.53C52.56 8.24 51.96 8.44 51.92 8.97C51.87 9.5 51.31 9.76 50.67 9.55C50.03 9.34 48.26 8.9 46.75 8.58C45.24 8.26 43.83 7.21 43.62 6.25C43.4 5.29 43.19 5.85 43.14 7.5L43.05 10.5L34.6 1.5L33.47 8.5C30.78 4.24 30.17 2.55 30.38 2C30.59 1.45 30.47 1.07 30.13 1.15C29.78 1.23 28.26 1.46 26.75 1.65ZM199.25 1.75C196.36 1.97 196 2.33 196 5C196 6.65 195.66 8 195.25 7.99C194.84 7.99 193.15 7.09 191.5 6C189.85 4.91 188.16 4.01 187.75 4.01C187.34 4 187.02 4.79 187.04 5.75C187.08 7.31 186.92 7.34 185.5 6C184.05 4.64 183.91 5.29 183.96 13.25L184 22C199.25 22 202.16 21.62 202.53 20.75C202.82 20.06 202.93 15.45 202.78 10.5L202.5 1.5L199.25 1.75ZM268.11 10.25L268 20C316.96 20 321.5 20.25 324.25 21.62C327.08 23.04 328.2 23.08 333 21.96C336.02 21.25 339.17 20.16 340 19.53C340.82 18.9 342.74 17.85 344.25 17.19C345.76 16.54 347 15.55 347 15C347 14.45 345.09 12.37 342.75 10.38C340.41 8.38 336.25 5.72 333.5 4.47C330.75 3.21 327.04 1.92 325.25 1.59C322.29 1.05 322 1.22 322 3.5C322 5.72 321.83 5.83 320.5 4.5C319.67 3.67 317.65 3 316 3C313.24 3 313 3.28 313 6.5C313 8.81 312.57 9.89 311.75 9.67C311.06 9.49 310.39 8.14 310.25 6.67C310.05 4.49 309.45 3.95 307.01 3.75C304.26 3.52 304.02 3.75 304.01 6.75C304 9.19 303.63 9.88 302.5 9.5C301.67 9.22 300.55 9 300 9C299.45 9 299 7.87 299 6.5C299 4.83 298.33 3.83 297 3.5C295.29 3.07 295 3.5 295 6.5C295 8.64 294.51 9.99 293.75 9.99C293.06 9.98 291.49 9.75 290.25 9.49C288.65 9.14 288 8.28 288 6.5C288 5.12 287.55 4 287 4C286.45 4 286 5.35 286 7C286 9.93 285.89 9.99 281.5 9.75C279.03 9.61 277 9.84 277 10.25C277 10.66 276.21 11.01 275.25 11.02C274.29 11.03 272.67 10.46 271.66 9.77C270.65 9.07 269.46 6.7 269.02 4.5C268.4 1.33 268.21 2.53 268.11 10.25Z" />
		<path id="Path 8" class="shp0" d="M269 4C269 5.67 269.89 7.89 271 9C272.1 10.1 273.9 11 275 11C276.1 11 277 10.66 277 10.25C277 9.84 279.03 9.61 281.5 9.75C285.89 9.99 286 9.93 286 7C286 5.35 286.45 4 287 4C287.55 4 288 5.12 288 6.5C288 8.28 288.65 9.14 290.25 9.49C291.49 9.75 293.06 9.98 293.75 9.99C294.51 9.99 295 8.64 295 6.5C295 3.5 295.29 3.07 297 3.5C298.33 3.83 299 4.83 299 6.5C299 7.87 299.45 9 300 9C300.55 9 301.67 9.22 302.5 9.5C303.63 9.88 304 9.19 304.01 6.75C304.02 3.75 304.26 3.52 307.01 3.75C309.45 3.95 310.05 4.49 310.25 6.67C310.39 8.14 311.06 9.49 311.75 9.67C312.57 9.89 313 8.81 313 6.5C313 3.28 313.24 3 316 3C317.65 3 319.67 3.67 320.5 4.5C321.83 5.83 322 5.72 322 3.5L322 1L269 1L269 4Z" />
		<path id="Path 9" class="shp1" d="M394.5 2C392.85 2.42 392.06 2.82 392.75 2.88C393.44 2.95 394 3.45 394 4C394 4.63 393.36 4.67 392.25 4.09C391.04 3.46 389.35 3.77 386.75 5.09C384.69 6.14 381.42 8.57 379.5 10.5C377.57 12.42 375.55 14.9 375 16C374.2 17.6 374.4 18.2 376 19C377.1 19.55 382.06 20.56 387.02 21.25C394.78 22.33 396.41 22.29 398.77 21C400.93 19.82 405.49 19.5 420.5 19.5C437.98 19.5 439.78 19.67 443 21.59C445.11 22.85 447.1 23.38 448 22.92C448.82 22.51 452.42 21.45 456 20.58C459.57 19.7 463.4 18.38 464.5 17.64C466.43 16.35 466.34 16.13 462 11.57C459.52 8.97 455.25 5.82 452.5 4.56C449.75 3.3 446.26 1.98 444.75 1.63C443.05 1.24 442.19 1.38 442.5 2C442.77 2.55 442.1 3 441 3C439.49 3 439 3.67 438.98 5.75C438.97 7.49 438.7 8 438.23 7.15C437.72 6.2 436.38 5.98 433.75 6.4C431.69 6.73 430 7.56 430 8.25C430 9.15 428.1 9.44 423.25 9.29C419.54 9.18 415.49 8.84 414.25 8.54C413.01 8.24 412 8.45 412 9C412 9.58 411.18 9.48 410.03 8.75C408.95 8.06 407.6 6.49 407.03 5.25C406.46 4.01 405.32 3 404.5 3C403.53 3 402.91 4.14 402.75 6.25L402.5 9.5C399.47 4.07 398.59 2.16 398.59 1.75C398.6 1.34 398.35 1.05 398.05 1.12C397.75 1.18 396.15 1.58 394.5 2ZM123.95 5.31C124.02 7.36 123.73 7.45 119.51 6.75C116.67 6.28 115 6.37 115 7C115 7.55 113.65 7.89 112.01 7.75L109.02 7.5L109 22L127.5 21.5C127.87 4.07 127.74 3.42 125.87 3.28C124.41 3.17 123.89 3.71 123.95 5.31ZM178 5C178 6.67 177.54 6.9 175.25 6.37C173.74 6.02 172.05 5.34 171.5 4.85C170.95 4.37 170.16 3.97 169.75 3.98C169.34 3.99 169 4.9 169 6C169 7.56 168.33 8 166 8C164.35 8 162.77 7.55 162.5 7C162.22 6.45 161.55 6 161 6C160.4 6 160.1 9.08 160.25 13.75L160.5 21.5L179 22C179 7.27 178.77 3 178.5 3C178.22 3 178 3.9 178 5ZM231.94 4.81C232 6.18 230.67 6.64 225.01 7.25C221.15 7.66 217.45 7.66 216.77 7.25C215.9 6.72 215.75 7.01 216.27 8.25C216.67 9.21 217 12.7 217 16L217 22L235 22C235.48 4.31 235.32 3.37 233.68 3.25C232.57 3.17 231.9 3.78 231.94 4.81Z" />
		<path id="Path 10" class="shp2" d="M343.37 17.68C341.24 18.94 339.05 20.15 338.5 20.38C337.95 20.61 335.47 21.35 333 22.03L328.5 23.25C333.92 28.28 336.4 31.38 337.5 33.38C339.46 36.94 339.63 37.01 345.5 37C348.8 36.98 352.95 36.42 354.73 35.74C357.48 34.68 357.86 34.13 357.34 32C357 30.62 356.14 28.37 355.44 27C354.74 25.62 352.6 22.45 350.7 19.95L347.24 15.41L343.37 17.68ZM5.15 19.72C4.43 21.25 3.22 25.2 2.46 28.5C1.52 32.55 1.4 34.83 2.09 35.5C2.64 36.05 6.9 36.61 11.55 36.75C16.68 36.9 20 36.61 20 36C20 35.45 20 34.77 20 34.5C20 34.22 20.73 32.54 21.61 30.75C22.5 28.96 24.29 26.37 25.59 25L27.95 22.5C20.63 21.28 16.13 20.61 13.23 20.21C10.33 19.82 7.62 18.92 7.21 18.22C6.69 17.33 6.07 17.78 5.15 19.72ZM459 19.6C455.42 20.88 451.49 21.95 450.25 21.96C449.01 21.98 447.77 22.45 447.5 23C447.22 23.55 447.92 25.24 449.05 26.75C450.18 28.26 451.51 31.07 452.01 33C452.89 36.38 453.12 36.52 458.71 37.18C461.89 37.55 466.02 37.55 467.87 37.18C469.72 36.8 471.37 36.27 471.53 36C471.69 35.72 471.41 33.25 470.9 30.5C470.39 27.75 469.19 23.57 468.24 21.22C467.28 18.86 466.27 17.01 466 17.11C465.72 17.2 462.57 18.33 459 19.6ZM372.49 21.38C371.74 23.1 370.69 26.52 370.15 29C369.61 31.47 369.35 33.95 369.57 34.5C369.79 35.05 371.44 35.96 373.24 36.53C375.03 37.1 378.97 37.42 382 37.23C387.44 36.91 387.51 36.86 388.75 32.95C389.44 30.78 391.12 27.65 392.5 26C393.87 24.35 395 22.77 395 22.5C395 22.22 391.96 21.72 388.25 21.38C384.54 21.04 379.78 20.2 377.67 19.52C373.89 18.28 373.83 18.31 372.49 21.38ZM108.49 22.75C108.77 23.44 109 26.81 109 30.25L109 36.5L127.5 35.5L128.08 21.5C110.38 21.5 108.1 21.8 108.49 22.75ZM160.21 28.5L160.5 35.5L179 36L179 22L159.92 21.5L160.21 28.5ZM183.84 28.5C184.05 32.35 184.29 35.63 184.36 35.79C184.44 35.95 188.55 35.73 193.5 35.29L202.5 34.5L203.08 21.5L183.46 21.5L183.84 28.5ZM216.83 28C217.05 31.57 217.29 34.55 217.37 34.61C217.44 34.67 221.44 35.01 226.25 35.36L235 36C235 26.7 235.23 23.44 235.51 22.75C235.9 21.8 233.67 21.5 226.23 21.5L216.44 21.5L216.83 28ZM132.58 23.5C132.26 24.32 132.01 26.46 132.01 28.25C132.02 30.04 132.25 32.51 132.51 33.75C132.97 35.88 133.48 36 142 36L151 36L151 22C135.09 22 133.04 22.32 132.58 23.5ZM240.04 28.96L240 36L258 36C258.89 30.96 259 27.92 258.82 26L258.5 22.5L240.08 21.92L240.04 28.96ZM35.04 24.76C33.09 25.45 30.67 26.8 29.65 27.76C28.63 28.72 27.18 30.62 26.43 32C25.68 33.37 25.39 34.85 25.78 35.29C26.18 35.72 31 35.79 36.5 35.43C42 35.08 55.72 35.36 67 36.07C78.27 36.77 89.64 37.27 92.25 37.17C95.88 37.04 97 37.35 97 38.5C97 39.32 97.45 40 98 40C98.58 40 99 36.67 99 32L99 24C46.51 23.57 37.65 23.83 35.04 24.76Z" />
		<path id="Path 11" class="shp1" d="M55 23.75C63.52 23.92 77.02 23.92 85 23.75C92.97 23.58 86 23.44 69.5 23.44C53 23.44 46.47 23.58 55 23.75Z" />
		<path id="Path 12" class="shp2" d="M404.29 24.05C402.76 24.35 400.37 25.39 399 26.36C397.62 27.32 395.87 29.1 395.09 30.31C394.31 31.51 393.54 33.4 393.37 34.5C393.08 36.39 393.42 36.46 399.78 35.73C404.07 35.25 408.31 35.39 411.5 36.13C414.76 36.89 419.28 37.02 424.5 36.52C428.9 36.1 435.76 35.81 439.75 35.88C443.74 35.94 447.22 35.55 447.5 35C447.77 34.45 446.98 32.54 445.74 30.75C444.49 28.96 441.9 26.71 439.99 25.74C437.21 24.34 433.49 23.93 421.79 23.74C413.7 23.61 405.83 23.75 404.29 24.05Z" />
		<path id="Path 13" class="shp1" d="M414.5 23.74C418.35 23.93 424.2 23.93 427.5 23.74C430.8 23.54 427.65 23.39 420.5 23.39C413.35 23.39 410.65 23.55 414.5 23.74Z" />
		<path id="Path 14" class="shp2" d="M481.47 31C481.83 35.12 482.32 39.29 482.56 40.25C482.95 41.79 484.28 41.98 493.75 41.86C499.66 41.79 503.49 41.56 502.25 41.36C501.01 41.16 500.22 40.55 500.5 40C500.77 39.45 501.34 39.21 501.75 39.46C502.16 39.71 504.07 39.46 506 38.9C507.92 38.35 510.4 37.66 511.5 37.38C512.6 37.1 517.89 36.12 523.26 35.19L533.02 33.5L533 24C523.7 24 511.96 23.89 500.91 23.75L480.81 23.5L481.47 31Z" />
		<path id="Path 15" class="shp1" d="M493 23.74C497.67 23.93 505.77 23.93 511 23.75C516.22 23.56 512.4 23.41 502.5 23.41C492.6 23.41 488.32 23.56 493 23.74ZM523.5 23.72C525.15 23.95 528.07 23.95 530 23.72C531.92 23.5 530.57 23.32 527 23.32C523.42 23.32 521.85 23.5 523.5 23.72ZM550 23.75C556.87 23.92 568.57 23.92 576 23.75C583.42 23.58 577.8 23.44 563.5 23.44C549.2 23.44 543.12 23.58 550 23.75Z" />
		<path id="Path 16" class="shp2" d="M268.02 28.25C268.02 30.59 268.36 33.01 268.77 33.64C269.28 34.44 278.54 34.92 299.5 35.23C316 35.47 330.37 36.08 331.42 36.58C333.14 37.4 333.26 37.22 332.56 35C332.13 33.62 330.81 31.43 329.64 30.12C328.46 28.81 325.7 26.91 323.5 25.89C319.94 24.25 316.64 24.04 293.75 24.02L268 24L268.02 28.25ZM537.99 28.75L537.98 33.5C548.46 34.66 556.67 36.3 563 37.91C572.58 40.34 573.92 40.9 571 41.25C569.07 41.49 572.34 41.75 578.25 41.84L589 42L589 24L538 24L537.99 28.75Z" />
		<path id="Path 17" fill-rule="evenodd" class="shp3" d="M481.5 31.5C481.68 32.05 482.1 34.64 482.42 37.25C482.77 40.14 482.61 42 482 42C481.44 42 481.03 39.47 481.08 36.25C481.12 33.09 481.31 30.95 481.5 31.5ZM132.62 34.25C132.95 35.76 134.24 36 151 36L151 48.5L132.01 48.5L132.12 40.5C132.18 36.1 132.4 33.29 132.62 34.25ZM258.73 39.5C258.91 43.35 258.88 46.95 258.66 47.5C258.44 48.05 254.15 48.61 240 49L240 36L249 36C256.83 36 258.03 35.77 258.2 34.25C258.3 33.29 258.54 35.65 258.73 39.5ZM268.77 33.64C269.28 34.44 278.82 34.97 300 35.38C316.77 35.7 331.28 36.09 332.24 36.23C333.2 36.38 334.44 37.85 335.01 39.5C335.57 41.15 336.02 43.4 336 44.5C335.97 46.02 335.37 46.44 333.48 46.25C331.83 46.08 331 46.5 331 47.5C331 48.79 328.46 48.95 312.75 48.66C302.71 48.47 288.54 48.58 268 49.5L268.01 41C268.02 36.32 268.36 33.01 268.77 33.64ZM302.25 46.75C314.14 46.54 316.5 46.25 316.5 45C316.5 43.75 314.13 43.45 302.28 43.22C288.57 42.96 288.05 43.02 288.03 44.97C288 46.93 288.51 46.99 302.25 46.75ZM536.77 33.4L544.13 34.22C548.19 34.67 556.67 36.32 574.5 40.73L569.5 41.37C566.75 41.73 562.59 42.01 556 42L555.99 50.5L537.5 48.5L536.77 33.4ZM202.26 34.49L202.64 39.5C202.85 42.25 202.91 44.61 202.76 44.75C202.62 44.88 198.57 46.01 193.77 47.25C188.98 48.49 184.86 49.27 184.64 49C184.42 48.72 184.07 45.55 183.87 41.94C183.53 35.83 183.64 35.4 185.5 35.72C186.6 35.91 190.82 35.71 194.88 35.28L202.26 34.49ZM216.11 34.48L225.3 35.18C230.36 35.56 234.72 35.72 235 35.54C235.27 35.35 235.33 37.97 235.13 41.35C234.93 44.73 234.7 47.63 234.63 47.79C234.56 47.95 230.46 47.73 216.54 46.5L216.11 34.48ZM369.77 34.62C370.17 35.23 371.62 36.1 373 36.55C374.37 37 378.31 37.28 388 37L387.5 47.5L381.75 47.25C378.42 47.11 376 47.42 376 48C376 48.55 374.42 49 369 49L369.02 41.25C369.02 36.99 369.36 34 369.77 34.62ZM533 34L533 49L525.25 49.58C520.99 49.9 516.71 50.35 515.75 50.58C514.28 50.93 514 50.28 514 42L510.25 42.01C508.19 42.02 505.04 41.79 503.25 41.51C501.46 41.23 500.22 40.55 500.5 40C500.77 39.45 501.34 39.21 501.75 39.46C502.16 39.71 504.07 39.46 506 38.9C507.92 38.35 510.4 37.67 511.5 37.4C512.6 37.12 516.65 36.3 520.5 35.56C524.35 34.82 528.74 34.17 533 34ZM0.85 35.1L3.68 36.11C5.23 36.66 9.65 36.97 20.5 36.5L19.85 48.5L12.67 48.39C8.73 48.33 4.49 48.21 3.25 48.14C1.17 48.01 0.99 47.51 0.93 41.55L0.85 35.1ZM25.06 35.5L36.92 35.19C43.45 35.01 57.49 35.43 68.14 36.11C78.79 36.8 89.64 37.27 92.25 37.18C95.88 37.04 97 37.35 97 38.5C97 39.39 97.61 39.8 98.5 39.5C99.38 39.21 99.86 39.52 99.67 40.25C99.42 41.2 92.71 41.62 72.13 42C49.41 42.42 44.77 42.75 43.98 44C43.46 44.82 43.02 45.84 43.02 46.25C43.01 46.66 52.45 47 64 47C83.33 47 85 47.14 85.02 48.75C85.03 50.28 84.56 50.38 81.27 49.54C79.2 49.02 65.57 48.56 24.5 48.44L24.16 45.97C23.97 44.61 24.1 41.7 24.44 39.5L25.06 35.5ZM127.76 40.54C127.92 43.82 127.7 46.78 127.27 47.12C126.85 47.47 122.56 48.03 109 49L108.5 36.25L117.49 36.07C122.44 35.97 126.71 35.59 126.98 35.23C127.26 34.87 127.61 37.26 127.76 40.54ZM159.92 35.5L179.5 35.5L179.5 42.65C179.5 47.11 179.12 49.6 178.5 49.26C177.95 48.97 173.67 48.67 160.5 48.5L160.21 42L159.92 35.5ZM357.25 35.02C358.75 35 359 35.99 359 49L354 49C351.25 49 349 48.55 349 48C349 47.37 347.33 47.28 339.97 48.5L339.98 44.25C339.99 41.91 339.77 39.32 339.5 38.5C339.09 37.27 340.2 37 345.75 36.98C349.46 36.98 353.17 36.53 354 36C354.82 35.47 356.29 35.02 357.25 35.02ZM408 35.61C410.47 36.05 415.87 36.39 420 36.36C424.12 36.32 432.08 36.12 447.85 35.5L448.44 38.5C448.76 40.15 449.02 42.96 449.01 44.75C449.01 46.54 448.44 48.21 447.75 48.47C447.06 48.73 442.79 49.29 438.26 49.72C430.14 50.49 430.01 50.46 430.01 48.25C430 47.01 429.55 45.1 429 44C428.14 42.27 427 42 420.7 42C416.18 42 412.94 42.48 412.18 43.25C411.51 43.94 410.97 45.85 410.98 50.5L404.74 49.7C401.31 49.25 397.04 48.8 392.01 48.5L391.99 36.5L397.25 36.18C400.14 36.01 402.72 35.63 403 35.34C403.27 35.05 405.52 35.17 408 35.61ZM452.23 36.41L458.11 37.21C461.59 37.68 465.64 37.59 472 36L471.98 49.5L468.99 49.25C467.35 49.11 466 48.55 466 48C466 47.41 463.36 47.1 453.15 47.5L452.69 41.96L452.23 36.41ZM484.25 36.98C484.39 36.97 485.96 37.64 487.75 38.48C489.54 39.32 491 40.22 491 40.5C491 40.77 489.42 41 487.5 41C484.67 41 484 40.62 484 39C484 37.9 484.11 36.99 484.25 36.98Z" />
		<path id="Path 18" class="shp4" d="M192.75 47.35C184.87 49.28 184.06 49.7 184.63 51.5C184.98 52.6 185.66 54.51 186.13 55.75C186.9 57.74 187.72 58.01 193.25 58.07C196.69 58.1 206.8 58.21 215.73 58.32L231.96 58.5C233.49 54.62 234.17 52.26 234.47 50.75L235 48C221.44 47.04 216.94 46.37 216.25 45.88C215.5 45.36 214.8 45.4 214.5 46C214.22 46.55 211.97 47 209.5 47C207.02 47 204.77 46.55 204.5 46C204.22 45.45 203.44 45.04 202.75 45.1C202.06 45.15 197.56 46.16 192.75 47.35ZM331 47.25C331 48.22 324.24 48.52 300.75 48.59C284.11 48.64 269.94 48.98 269.25 49.34C268.4 49.79 268.05 52.34 268.15 57.25C268.23 61.24 268.46 63.26 268.65 61.75C268.96 59.33 269.51 58.94 273.25 58.5C275.59 58.23 284.7 57.92 293.5 57.82C302.3 57.72 314.45 57.73 320.5 57.83C328.25 57.97 331.88 57.66 332.8 56.77C333.52 56.07 334.57 53.92 335.14 52C335.71 50.07 335.91 47.94 335.59 47.25C335.26 46.56 334.1 46 333 46C331.9 46 331 46.56 331 47.25ZM118.5 48.17C113.55 48.54 109.06 48.54 108.52 48.17C107.93 47.76 107.83 48.18 108.27 49.25C108.67 50.21 109 52.12 109 53.5C109 55.98 109.07 56 118 56C124.24 56 127.17 55.62 127.55 54.75C127.85 54.06 127.96 52.15 127.8 50.5L127.5 47.5L118.5 48.17ZM343.5 47.69C340.91 48 340.36 48.62 339.45 52.28L338.39 56.5C348.55 55.9 352.96 56.23 354.75 56.86C357.94 57.98 358.01 57.94 358.57 54.75C358.89 52.96 359.34 50.82 359.56 50C359.9 48.78 358.96 48.55 354.49 48.75C351.33 48.89 349 48.58 349 48C349 47.45 348.44 47.07 347.75 47.16C347.06 47.25 345.15 47.48 343.5 47.69ZM376.07 47.94C376.03 48.54 374.28 48.89 371.99 48.75C369.11 48.57 368.13 48.85 368.49 49.75C368.77 50.44 369 52.35 369 54C369 56.24 369.46 57 370.83 57C371.84 57 373 56.66 373.41 56.25C373.82 55.84 377.16 55.5 380.83 55.5L387.5 55.5L387.62 47.48C378.33 46.99 376.11 47.28 376.07 47.94ZM453.5 47.67C453.04 48.03 452.81 51.52 452.99 55.42C453.17 59.31 453.47 61.04 453.66 59.25C453.85 57.41 454.54 56.05 455.25 56.12C455.94 56.18 459.99 56.18 464.25 56.12L472 56C471.54 50 471.07 49.46 468.75 49.25C467.24 49.11 466 48.55 466 48C466 47.45 463.39 47 460.17 47C456.96 47 453.96 47.3 453.5 47.67ZM0.82 51.91C0.95 55.23 1.25 55.56 4.73 56.24C6.8 56.65 10.86 56.98 13.75 56.99L19 57C19.55 62.81 19.66 60.9 19.61 56.5L19.5 48.5L0.67 48.33L0.82 51.91ZM24.2 52.47C24.47 56.06 24.83 56.53 28 57.42C30.35 58.08 37.08 58 48.5 57.19C57.85 56.53 69.89 55.99 75.25 55.99C84.34 56 85 55.86 85 54C85 52.9 85.23 51.44 85.51 50.75C85.86 49.91 84.8 49.4 82.26 49.2C80.19 49.04 66.22 48.81 51.2 48.7L23.91 48.5L24.2 52.47ZM132.5 48.67C132.04 49.03 131.82 52.75 132.01 56.92C132.23 61.87 132.46 63.02 132.67 60.25L133 56C143.07 56 146.22 56.45 146.5 57C146.77 57.55 147.9 58 149 58C150.68 58 151 57.33 151.02 53.75C151.04 49.76 150.84 49.45 147.77 48.74C145.97 48.32 141.99 47.98 138.92 47.99C135.85 47.99 132.96 48.3 132.5 48.67ZM160.38 49.5C160.6 50.05 161.06 52.19 161.39 54.25L162 58C177.5 58 182.01 57.89 182.02 57.75C182.03 57.61 181.38 55.7 180.58 53.5C179.77 51.3 179.27 49.27 179.47 49C179.67 48.72 175.36 48.5 169.9 48.5C163.68 48.5 160.13 48.87 160.38 49.5ZM239 50.75C239 51.99 238.6 54.01 238.12 55.25C237.27 57.44 237.41 57.5 243.37 57.42C246.74 57.38 250.96 57.95 252.75 58.68C255.96 59.98 256.01 59.96 256.91 56.75C257.41 54.96 258.07 52.37 258.37 51L258.91 48.5C239.3 48.5 239 48.57 239 50.75ZM392.5 48.65C392.04 49.03 391.82 52.75 392.01 56.92C392.23 61.85 392.48 63.1 392.72 60.5L393.1 56.5L411.18 57.5C410.51 50.56 410.4 50.49 405 49.82C401.97 49.45 398.11 48.88 396.42 48.56C394.72 48.24 392.96 48.28 392.5 48.65ZM443.86 49.14C441.46 49.51 437.25 49.93 434.5 50.07L429.5 50.33L430.5 57.21C443.21 56.66 447.39 56.05 447.99 55.5C448.59 54.95 448.88 53.14 448.65 51.49C448.23 48.54 448.13 48.49 443.86 49.14ZM537.22 52.5L537.5 56.5L555.83 56.5C556.49 50.48 556.33 50.35 552.5 50.13C550.3 50.01 545.9 49.6 542.72 49.21L536.93 48.5L537.22 52.5ZM522.5 49.68C520.3 49.88 517.49 50.25 516.25 50.52C514.52 50.89 514 51.7 514 54L514 57L533 57C533 49.12 532.9 49.01 529.75 49.17C527.96 49.26 524.7 49.49 522.5 49.68Z" />
		<path id="Path 19" class="shp5" d="M78.5 55.7C74.65 55.81 62.27 56.44 51 57.09C35.64 57.98 29.69 57.99 27.25 57.14L24 56L24 66L85 66C85.48 57.86 85.59 55.5 85.56 55.5C85.53 55.5 82.35 55.59 78.5 55.7ZM108.49 56.75C108.77 57.44 109 60.02 109 62.5L109 67L127.5 66.5L128.08 55.5C110.38 55.5 108.1 55.8 108.49 56.75ZM373.15 56.37C372.79 56.85 371.49 57.08 370.26 56.87C368.78 56.63 368.19 56.92 368.51 57.75C368.78 58.44 369 60.8 369 63L369 67L387.5 66.5L388.08 55.5C377.02 55.5 373.51 55.89 373.15 56.37ZM445.96 56.15C444.61 56.69 440.23 56.99 436.24 56.82C430.72 56.58 429.1 56.8 429.49 57.75C429.77 58.44 430 60.57 430 62.5L430 66C443.56 66.86 447.85 66.75 448.27 66.31C448.7 65.86 448.91 63.18 448.73 60.34C448.43 55.29 448.36 55.2 445.96 56.15ZM0.95 61.55L1 67C13.79 67.42 18.06 67.42 18.75 67.27C19.65 67.08 19.82 65.67 19.36 62.25C19.01 59.64 18.67 57.45 18.61 57.39C18.55 57.33 14.54 57.01 9.7 56.69L0.9 56.1L0.95 61.55ZM132.76 60.75C132.53 63.36 132.49 65.84 132.67 66.25C132.85 66.66 137.05 67 142 67L151 67C151 58.67 150.7 58 149 58C147.9 58 146.77 57.55 146.5 57C146.22 56.45 143.12 56 139.59 56L133.19 56L132.76 60.75ZM237.12 56.81C237.3 57.19 236.59 58.85 235.54 60.5C234.49 62.15 232.7 64.28 231.56 65.23C229.58 66.89 229.93 66.96 240.25 66.98L251 67C254.1 62.35 255 60.55 255 60C255 59.45 253.65 58.55 252 58C250.35 57.45 247.76 57.28 246.25 57.63C244.74 57.97 241.99 57.77 240.15 57.19C238.31 56.6 236.94 56.43 237.12 56.81ZM338.85 56.63C337.95 56.91 336.94 58 336.6 59.06C336.27 60.13 334.65 62.35 333 64C331.35 65.65 330.34 67.15 330.75 67.33C331.16 67.51 336.56 67.51 342.75 67.33L354 67C357.25 59.91 357.57 58.17 356.9 57.5C356.35 56.95 352.43 56.42 348.2 56.32C343.96 56.22 339.76 56.36 338.85 56.63ZM392.9 60.66C392.59 63.32 392.49 65.84 392.67 66.25C392.85 66.66 397.05 67 402 67L411 67L411 57C400.54 56.98 396.59 56.71 395.49 56.4C393.71 55.89 393.4 56.4 392.9 60.66ZM453.87 57.87C453.93 58.77 453.65 61.14 453.24 63.14C452.5 66.78 452.51 66.79 456.5 67.47C458.7 67.84 463.09 67.89 466.25 67.57L472 67L471.76 55.92C455.13 56.22 453.77 56.5 453.87 57.87ZM537.21 61.5L537.5 66.5C548.35 66.84 552.51 66.73 553.75 66.47C555.67 66.07 556.04 65.28 556.25 61.11L556.5 56.22L536.92 56.5L537.21 61.5ZM165.75 57.75C164.24 57.89 163 58.22 163 58.5C163 58.77 163.56 60.01 164.25 61.24C164.94 62.47 166.4 64.28 167.5 65.27C169.14 66.74 171.29 67.06 179.5 67.05L189.5 67.04C184.49 61.97 183.02 59.94 183.02 59.25C183 58.39 180.74 57.92 175.75 57.75C171.76 57.61 167.26 57.61 165.75 57.75ZM282.33 57.92C275.64 58.24 269.97 58.72 269.73 59C269.49 59.27 269 60.96 268.64 62.75C268.06 65.69 268.26 66.06 270.75 66.66C272.26 67.03 283.96 67.03 296.75 66.66C316.14 66.11 320.53 65.71 323.22 64.25C324.99 63.29 326.9 62.15 327.47 61.72C328.04 61.28 329.4 60.27 330.5 59.47C332.31 58.14 331.76 58.01 324.5 58.09C320.1 58.13 311.55 57.98 305.5 57.75C299.45 57.52 289.03 57.6 282.33 57.92ZM513.98 61.25L513.97 65.5C521.36 66.67 525.64 67.01 528.25 67.01L533 67L533 57L514 57L513.98 61.25ZM189.5 60.58C191.15 61.97 193.85 63.69 195.5 64.41C197.24 65.17 202.91 65.79 209 65.89C214.77 65.97 220.85 65.66 222.5 65.19C224.15 64.72 226.75 63.25 228.27 61.92C229.8 60.59 231 59.16 230.94 58.75C230.87 58.33 220.85 58.01 208.66 58.02L186.5 58.05L189.5 60.58Z" />
		<path id="Path 20" class="shp6" d="M188.36 65.75C188.86 66.72 186.66 66.94 178.59 66.75C172.87 66.61 168.37 66.84 168.59 67.25C168.82 67.66 168.17 69.01 167.15 70.25C166.13 71.49 165.05 72.95 164.74 73.5C164.4 74.11 166.79 74.63 170.84 74.84C174.5 75.02 178.74 75.81 180.25 76.59C182.78 77.89 183.04 77.84 183.5 76C183.77 74.9 185.69 72.65 187.75 71.01C191.4 68.09 191.45 67.97 189.61 66.26C188.57 65.29 188.01 65.06 188.36 65.75ZM429.62 71.45C429.96 74.78 430.3 77.64 430.37 77.82C430.44 77.99 434.55 77.77 439.5 77.32L448.5 76.5L449.06 66.5C444.45 66.98 439.94 66.74 436.05 66.26L428.99 65.41L429.62 71.45ZM554.92 66.02C554.14 66.5 549.79 66.81 545.25 66.7L537 66.5L537 77.5L556 78C556.45 68.31 556.53 65.42 556.46 65.33C556.4 65.23 555.71 65.54 554.92 66.02ZM108.49 67.75C108.77 68.44 109 70.8 109 73L109 77L127.5 76.5L128.09 66.5C110.38 66.5 108.1 66.8 108.49 67.75ZM132.11 73.5C132.18 77.35 132.4 79.71 132.62 78.75C132.91 77.4 134.03 77 137.5 77C139.97 77 142 76.55 142 76C142 75.45 143.91 74.89 146.25 74.75C150.4 74.51 150.51 74.41 150.75 70.75L151 67L132 66.5L132.11 73.5ZM368.8 71C369.07 73.47 369.79 75.84 370.39 76.26C371 76.67 375.1 76.9 379.5 76.76L387.5 76.5L388.09 66.5L368.3 66.5L368.8 71ZM392.11 73.5C392.18 77.35 392.45 79.6 392.73 78.5C393.19 76.61 393.73 76.54 402.11 77.25L411 78L411 67L392 66.5L392.11 73.5ZM514.14 71.61L513.97 77.5C520.97 78.66 525.25 78.55 528 78L533 77L533 67C525.64 67.01 521.43 66.73 518.91 66.37L514.31 65.73L514.14 71.61ZM1.05 71.95L1 77C17.26 76.55 19.03 76.78 19.36 78C19.58 78.82 19.84 76.77 19.94 73.42L20.11 67.35L1.11 66.9L1.05 71.95ZM227.96 67.25C227.93 67.39 229.84 69.45 232.21 71.83C236.3 75.97 236.71 76.14 241 75.58C243.47 75.26 247.6 74.89 250.16 74.75C253.94 74.55 254.66 74.22 254.02 73C253.59 72.17 252.51 70.94 251.62 70.25C250.73 69.56 250.22 68.55 250.5 68C250.82 67.36 246.83 67 239.5 67C233.17 67 227.98 67.11 227.96 67.25ZM327.96 68.18C327.16 68.57 326.72 69.03 327 69.2C327.27 69.38 329.52 71.07 332 72.96C336.29 76.24 336.98 76.43 346.76 76.95C352.4 77.25 357.01 77.16 357.01 76.75C357 76.34 356.12 74.31 355.03 72.25C353.95 70.19 353.39 68.13 353.78 67.67C354.18 67.21 348.86 66.98 341.96 67.16C335.06 67.33 328.76 67.79 327.96 68.18ZM453.02 73.5C453.03 77.64 453.32 79.03 453.97 78C454.75 76.76 456.37 76.63 463.45 77.25L472 78L472 67.5L453 67.5L453.02 73.5ZM24.17 72.25C24.48 74.35 25.13 74.54 34 75.1C39.22 75.44 47.77 76.38 53 77.2C58.22 78.02 64.19 78.54 66.25 78.35C68.31 78.16 70 78.34 70 78.75C70 79.16 72.03 79.39 74.5 79.25C77 79.11 79 79.44 79 80C79 80.55 80.46 80.89 82.24 80.75C84.59 80.57 85.58 79.95 85.83 78.5C86.03 77.4 85.92 75.04 85.59 73.25L85 70L23.84 70L24.17 72.25ZM194.12 71.92C191.72 73.01 189.8 74.26 189.86 74.7C189.93 75.14 192.8 75.21 196.24 74.85C199.68 74.49 203.4 74.62 204.5 75.13C205.68 75.68 211.2 75.74 218 75.27L229.5 74.49C224.05 70.81 221.63 70.46 211.05 70.22C200.29 69.98 197.87 70.22 194.12 71.92ZM268.18 74.21C268.24 76.25 268.41 76.65 268.64 75.25C268.89 73.7 269.54 73.13 270.75 73.41C271.71 73.64 274.07 74.08 276 74.38C277.92 74.69 285.12 75.41 292 75.98C302.58 76.87 305.42 76.78 310.5 75.45C314.55 74.38 318.29 74.07 322 74.51C327.32 75.14 327.44 75.1 325.72 73.33C324.09 71.66 321.53 71.47 296.01 71.21L268.09 70.91L268.18 74.21Z" />
		<path id="Path 21" class="shp7" d="M269.09 73.93C269.04 74.52 269.79 75.03 270.75 75.07C272.25 75.13 272.21 75.27 270.5 76C268.9 76.69 269.24 76.87 272.25 76.93C274.31 76.97 276.34 77.14 276.75 77.31C277.16 77.48 284.25 77.94 292.5 78.33C304.91 78.91 309.31 78.71 318 77.18L328.5 75.34C318.22 74.09 314.78 74.33 310.5 75.45C305.43 76.78 302.56 76.86 292 75.98C285.12 75.41 277.92 74.69 276 74.38C274.07 74.08 271.75 73.61 270.84 73.35C269.93 73.08 269.14 73.35 269.09 73.93ZM24.24 76C24.45 77.11 25.96 77.51 30.01 77.55C33.03 77.58 43.27 78.48 52.76 79.55C64.86 80.92 70.01 81.87 70.01 82.75C70 83.56 68.43 84 65.5 84C62.57 84 60.99 84.44 60.98 85.25C60.97 86.18 62.14 86.31 65.48 85.75C68.33 85.28 70 85.37 70 86C70 86.55 71.88 86.89 74.17 86.75C76.48 86.61 78.49 85.94 78.67 85.25C78.85 84.56 77.77 83.75 76.25 83.44C74.07 82.99 73.81 82.69 75 81.95C75.82 81.45 77.06 81.02 77.75 81.02C78.44 81.01 79 81.67 79 82.5C79 83.5 80 84 82 84C83.65 84 85 84.45 85 85C85 85.55 83.65 86 82 86C80 86 79 86.5 79 87.5C79 88.59 79.94 88.93 82.5 88.75C85.87 88.51 85.99 88.36 85.99 84.5C85.99 80.55 85.95 80.5 82.49 80.75C80.57 80.89 79 80.55 79 80C79 79.44 77 79.11 74.5 79.25C72.03 79.39 70 79.16 70 78.75C70 78.34 68.31 78.16 66.25 78.35C64.19 78.54 58.22 78.03 53 77.21C47.77 76.4 39.1 75.45 33.72 75.12C25.35 74.59 23.99 74.72 24.24 76ZM146.25 74.75C143.91 74.89 142 75.45 142 76C142 76.55 139.97 77 137.5 77C135.02 77 133 77.45 133 78C133 78.56 135.74 78.99 139.25 78.99C142.69 78.98 146.52 78.64 147.77 78.24C149.03 77.83 150.16 76.87 150.29 76.11C150.43 75.34 150.53 74.67 150.52 74.61C150.51 74.55 148.59 74.61 146.25 74.75ZM163.77 75.39C163.13 75.94 162.69 76.76 162.8 77.2C162.91 77.64 167.39 77.98 172.75 77.96C181.49 77.92 182.24 77.78 180 76.58C178.62 75.84 174.68 75.05 171.22 74.81C167.75 74.57 164.42 74.83 163.77 75.39ZM194.25 74.65C190.35 74.91 188.84 75.45 188.4 76.75C187.97 77.99 188.19 78.31 189.15 77.87C189.89 77.52 193.46 76.9 197.08 76.49C201.41 76 203.98 76.11 204.58 76.81C205.2 77.54 209.6 77.66 218.16 77.19C225.19 76.81 230.53 76.11 230.16 75.62C229.8 75.13 223.87 74.87 217 75.03C210.12 75.19 203.37 75.1 202 74.82C200.62 74.54 197.14 74.46 194.25 74.65ZM250 74.66C248.07 74.85 244.02 75.25 241 75.55C237.92 75.86 235.94 76.46 236.5 76.92C237.05 77.37 240.42 77.98 244 78.27C247.57 78.56 251.17 78.5 252 78.15C252.82 77.79 253.59 76.71 253.7 75.75C253.81 74.79 253.81 74.07 253.7 74.16C253.59 74.25 251.92 74.47 250 74.66Z" />
		<path id="Path 22" class="shp8" d="M253.55 76C253.25 76.55 253.34 77.03 253.75 77.07C254.16 77.11 253.6 77.52 252.5 77.99C251.4 78.46 248.25 78.58 245.5 78.27C242.75 77.95 239.71 77.99 238.75 78.35C237.3 78.89 237.22 79.28 238.25 80.62C239.27 81.95 241.01 82.18 247.66 81.87C252.15 81.67 256.2 81.17 256.66 80.76C257.12 80.35 257.09 79.23 256.59 78.26C256.09 77.29 255.66 76.16 255.64 75.75C255.62 75.34 255.26 75 254.85 75C254.44 75 253.85 75.45 253.55 76Z" />
		<path id="Path 23" class="shp7" d="M368.06 75.96C368.03 76.53 369.01 77.37 370.25 77.82C371.49 78.28 375.87 78.55 380 78.44C384.12 78.32 387.61 77.84 387.75 77.36C387.89 76.89 384.52 76.66 380.25 76.86C375.64 77.08 371.61 76.76 370.31 76.08C368.86 75.32 368.1 75.28 368.06 75.96ZM9.75 76.75C4.75 76.89 1 77.43 1 78C1 78.61 4.31 78.9 9.42 78.75C14.05 78.61 18.21 78.16 18.67 77.75C19.13 77.34 19.27 76.89 19 76.75C18.72 76.61 14.56 76.61 9.75 76.75ZM108.33 77.5C108.52 78.07 112.67 78.5 118 78.5C123.33 78.5 127.48 78.07 127.67 77.5C127.87 76.88 124.22 76.5 118 76.5C111.78 76.5 108.13 76.88 108.33 77.5Z" />
		<path id="Path 24" class="shp8" d="M149.89 77C149.47 78.14 147.35 78.56 141.17 78.75C134.69 78.95 133 79.31 133 80.5C133 81.71 134.52 82 140.75 81.98C145.01 81.98 149.09 81.64 149.81 81.23C150.53 80.83 150.97 79.37 150.78 78C150.56 76.33 150.26 76 149.89 77ZM193 77C190.52 77.41 188.16 77.58 187.75 77.37C187.34 77.17 186.77 77.67 186.5 78.5C186.22 79.32 186 80.34 186.01 80.75C186.01 81.16 189.27 81.14 193.26 80.7C197.24 80.26 205.45 80.08 211.5 80.31C217.55 80.54 224.86 80.9 227.75 81.11C230.64 81.32 233.01 81.27 233.02 81C233.03 80.72 232.46 79.65 231.77 78.62C230.6 76.89 229.51 76.79 217.75 77.37C209.5 77.78 205 77.65 205 77C205 76.45 203.31 76.06 201.25 76.13C199.19 76.19 195.47 76.59 193 77ZM315 77.63C309.6 78.67 303.86 78.91 294.5 78.49C287.35 78.17 278.69 77.7 275.25 77.45C270.68 77.12 269 77.34 268.99 78.25C268.99 79.11 271.91 79.74 278.24 80.27C283.33 80.7 297.51 81.04 309.75 81.02C321.99 81.01 332 80.77 332 80.5C332 80.22 331.21 79.1 330.25 77.99C329.17 76.75 327.35 76.02 325.5 76.08C323.85 76.14 319.12 76.83 315 77.63Z" />
		<path id="Path 25" class="shp7" d="M335.58 76.84C335.83 77.52 339.4 78.24 344.25 78.58C349 78.91 353.56 78.73 355 78.14C357.03 77.32 356.1 77.11 350 77.05C345.87 77.01 340.85 76.69 338.83 76.33C336.26 75.88 335.29 76.03 335.58 76.84ZM439 77.57L429.5 78.72C444.06 78.94 448.21 78.57 448.5 78C448.77 77.45 448.89 76.87 448.75 76.71C448.61 76.56 444.22 76.95 439 77.57Z" />
		<path id="Path 26" class="shp8" d="M24.24 79C24.46 80.18 26.48 80.55 33.76 80.75C42.44 80.98 43.02 81.13 43.25 83.19C43.44 84.88 44.65 85.72 48.5 86.87C51.41 87.73 58.82 88.49 66.25 88.68C75.96 88.92 79 88.7 79 87.75C79 86.9 77.57 86.58 74.5 86.75C72 86.89 70 86.56 70 86C70 85.37 68.33 85.28 65.48 85.75C62.14 86.31 60.97 86.18 60.98 85.25C60.99 84.44 62.57 84 65.5 84C68.43 84 70 83.56 70.01 82.75C70.01 81.87 64.87 80.92 52.76 79.57C43.27 78.5 32.9 77.6 29.72 77.57C25.11 77.51 24.01 77.8 24.24 79Z" />
		<path id="Path 27" class="shp9" d="M268.34 84.5L268.5 92.5C285.24 92.95 287.1 92.71 287.5 91.5C287.91 90.26 290.44 90 302 90C313.56 90 316.09 90.26 316.5 91.5C316.89 92.67 318.77 93 324.93 93C330.61 93 333.3 92.58 334.43 91.5C335.29 90.67 336.01 89.66 336.03 89.25C336.04 88.84 335.26 86.7 334.28 84.5L332.5 80.5C300.72 80.98 286.44 80.87 280.25 80.56C270.63 80.08 268.94 79.75 268.59 78.25C268.37 77.29 268.26 80.1 268.34 84.5Z" />
		<path id="Path 28" class="shp8" d="M367.95 77.77C367.96 78.17 368.54 79.3 369.23 80.29C370.31 81.81 371.77 82.03 378.99 81.79C386.18 81.54 387.52 81.23 387.74 79.75C387.97 78.19 387.17 78.04 380.25 78.33C375.99 78.51 371.47 78.3 370.21 77.85C368.96 77.41 367.94 77.38 367.95 77.77Z" />
		<path id="Path 29" class="shp7" d="M393 78C393 78.6 396.66 78.95 402.25 78.87C410.54 78.75 410.98 78.65 406.5 77.95C403.75 77.53 399.59 77.14 397.25 77.09C394.91 77.04 393 77.45 393 78ZM454.34 77.72C454.8 78.15 459.08 78.55 463.84 78.61C470.65 78.7 471.65 78.56 468.5 77.92C466.3 77.48 462.02 77.08 459 77.03C455.97 76.98 453.88 77.29 454.34 77.72ZM527.5 78C524.68 78.72 524.76 78.77 528.75 78.88C531.09 78.95 533 78.55 533 78C533 77.45 532.44 77.05 531.75 77.12C531.06 77.18 529.15 77.58 527.5 78ZM539.4 77.91C538.76 78.39 541.71 79.07 546.4 79.5C550.85 79.92 555.06 79.98 555.75 79.63C556.44 79.28 557 78.66 556.99 78.25C556.98 77.84 553.27 77.41 548.74 77.29C544.21 77.17 540 77.45 539.4 77.91Z" />
		<path id="Path 30" class="shp8" d="M8.75 78.7C2.66 78.94 1 79.32 1 80.5C1 81.72 2.67 82 10 82C18.33 82 19 81.85 19 80C19 78.9 18.44 78.09 17.75 78.2C17.06 78.31 13.01 78.54 8.75 78.7ZM108.02 79C108.02 79.27 108.36 80.07 108.77 80.76C109.29 81.66 112.07 81.95 118.49 81.76C125.54 81.56 127.54 81.18 127.76 80C128 78.75 126.4 78.5 118.03 78.5C112.51 78.5 108.01 78.72 108.02 79ZM162.42 79.48C162.47 80.42 163.94 81.15 166.5 81.5C168.7 81.8 172.52 81.9 175 81.73C177.47 81.56 180.06 81.1 180.75 80.71C181.44 80.32 182 79.55 182 79C182 78.4 178.06 78 172.17 78C164.13 78 162.35 78.27 162.42 79.48ZM336.87 78.89C336.96 79.23 337.36 80.01 337.77 80.64C338.17 81.26 341.42 81.89 345 82.03C348.57 82.18 352.96 82.23 354.75 82.15C357.21 82.04 357.95 81.57 357.81 80.25C357.63 78.72 356.33 78.49 347.16 78.39C341.41 78.33 336.78 78.56 336.87 78.89ZM429.63 79.75C429.83 80.44 431.01 81.25 432.25 81.55C433.49 81.85 437.65 81.96 441.49 81.8C446.74 81.57 448.55 81.13 448.76 80C449 78.75 447.41 78.5 439.15 78.5C431.7 78.5 429.35 78.81 429.63 79.75ZM453.88 80.35C453.97 82.39 454.29 82.46 459.99 81.75C463.83 81.27 466 81.36 466 82C466 82.55 467.12 83 468.5 83C469.87 83 471.34 82.32 471.75 81.49C472.16 80.66 472.27 79.75 472 79.48C471.72 79.2 467.52 78.8 462.65 78.59C454.11 78.21 453.79 78.28 453.88 80.35ZM537.25 80C537.46 81.08 538.85 81.5 542.19 81.5C544.75 81.5 547.21 81.85 547.67 82.28C548.13 82.71 550.19 83.04 552.25 83.03C554.31 83.01 556 82.77 556 82.5C556 82.22 556.22 81.44 556.5 80.75C556.84 79.88 556.09 79.6 554.05 79.81C552.44 79.98 547.93 79.76 544.04 79.31C538.01 78.62 537.01 78.72 537.25 80Z" />
		<path id="Path 31" class="shp9" d="M19.18 80.25C19.02 81.77 17.84 82 10 82L1 82L1 92C11.46 92.02 15.51 92.25 16.75 92.51C18.46 92.88 19.13 92.46 19.56 90.75C19.86 89.51 19.94 86.25 19.74 83.5C19.53 80.75 19.28 79.29 19.18 80.25ZM232.45 80C232.93 81.25 232.13 81.43 227.76 81.08C224.87 80.85 216.42 80.62 209 80.58C201.57 80.54 193.17 80.73 190.32 81C185.51 81.46 185.1 81.71 184.56 84.5C184.24 86.15 183.98 88.74 183.99 90.25C184 92.84 184.31 93.03 189.25 93.49C192.14 93.76 196.19 94.21 198.25 94.49C201.59 94.94 202.14 94.7 203.26 92.25C204.39 89.79 205.05 89.5 209.5 89.5C213.95 89.5 214.61 89.79 215.74 92.25C216.82 94.6 217.47 94.94 220.25 94.55C222.04 94.3 225.75 93.82 228.5 93.48C231.25 93.13 233.95 92.71 234.5 92.53C235.14 92.33 235.21 90.1 234.7 86.36C234.26 83.14 233.44 80.05 232.89 79.5C232.21 78.83 232.07 79 232.45 80Z" />
		<path id="Path 32" class="shp8" d="M393.16 80.55C393.35 81.41 393.84 82.08 394.25 82.05C394.66 82.02 398.6 82 403 82C409.44 82 411 81.71 411 80.5C411 79.28 409.32 79 401.91 79C394.21 79 392.87 79.24 393.16 80.55Z" />
		<path id="Path 33" class="shp9" d="M453.12 84.75C453.04 88.82 453.44 91.24 454.25 91.69C454.94 92.07 459.21 92.52 463.75 92.69L472 93C471.98 82.53 471.96 82.5 468.99 82.75C467.35 82.89 466 82.55 466 82C466 81.36 463.87 81.27 460.11 81.75C454.72 82.44 454.18 82.33 453.72 80.5C453.45 79.4 453.18 81.31 453.12 84.75Z" />
		<path id="Path 34" class="shp8" d="M514 80.5C514 81.73 515.72 82 523.5 82C531.28 82 533 81.73 533 80.5C533 79.27 531.28 79 523.5 79C515.72 79 514 79.27 514 80.5Z" />
		<path id="Path 35" class="shp9" d="M24.21 86.45L24.5 92.4C35.35 94.29 39.51 94.88 40.75 94.92C42.6 94.99 43 94.47 43 92C43 89.01 43.02 89 48.75 89.03C51.91 89.04 54.27 88.82 54 88.53C53.72 88.24 51.25 87.41 48.5 86.69C44.58 85.66 43.45 84.9 43.25 83.19C43.01 81.13 42.44 80.99 33.46 80.75L23.91 80.5L24.21 86.45ZM132.03 84C132.03 86.47 132.25 89.51 132.51 90.75C132.97 92.88 133.48 93 142 93L151 93L151 81.5C135.78 82.05 133.31 81.79 132.77 80.82C132.36 80.09 132.03 81.52 132.03 84ZM253.87 81.25C252.02 81.76 247.68 82.02 244.24 81.83C240.33 81.63 238.12 81.88 238.37 82.5C238.59 83.05 239.05 85.64 239.39 88.25L240 93C254.52 93.08 256.8 92.72 257.75 91.54C258.66 90.43 258.76 88.67 258.12 85.17L257.25 80.34L253.87 81.25ZM392 84.5C391.98 87.25 392.54 90.28 393.23 91.23C394.41 92.82 395.09 92.84 402.5 91.51C406.9 90.72 410.61 90.05 410.75 90.03C410.89 90.02 411 88.2 411 86L411 82C395.76 82.45 393.72 82.18 392.98 81C392.31 79.94 392.02 80.96 392 84.5ZM429.31 81.38C429.69 82.27 430 84.46 429.99 86.25L429.99 89.5C443.56 92.06 447.84 92.62 448.25 92.4C448.66 92.18 449 89.64 449 86.75L449 81.5C436.41 82.09 432.59 81.76 431.06 81C428.93 79.92 428.71 79.97 429.31 81.38Z" />
		<path id="Path 36" class="shp8" d="M75 81.89C73.71 82.62 73.75 82.83 75.25 83.37C76.21 83.72 77.45 84 78 84C78.55 84 79 83.32 79 82.5C79 81.67 78.44 81.01 77.75 81.02C77.06 81.02 75.82 81.42 75 81.89Z" />
		<path id="Path 37" class="shp9" d="M108.8 86.5C109.05 89.25 109.31 91.58 109.38 91.69C109.45 91.79 112.42 92.17 116 92.53C119.95 92.93 123.58 92.76 125.25 92.09C127.71 91.11 128 90.5 128 86.25L128 81.5L108.34 81.5L108.8 86.5ZM161.41 82.5C161.22 83.05 160.94 85.27 160.78 87.43C160.53 90.88 160.81 91.45 163 92.08C164.37 92.48 168.54 92.85 172.25 92.9L179 93C179.89 86.41 180.33 83.82 180.56 83C180.91 81.74 179.42 81.5 171.36 81.5C165.84 81.5 161.6 81.93 161.41 82.5ZM357.66 81.56C357.27 81.98 352.69 82.26 347.48 82.16L338 82C339.55 85.87 340 88.01 339.99 89.25C339.99 91.37 340.5 91.54 349.24 92.16C354.33 92.52 358.81 92.52 359.18 92.16C359.56 91.8 359.52 89.09 359.11 86.15C358.7 83.2 358.05 81.14 357.66 81.56ZM368.83 87L369.15 92.5L387.5 92.5L388.08 81.5L368.5 81.5L368.83 87ZM537.21 87L537.5 92.5L556 93C556 86.8 556.23 84.44 556.5 83.75C556.86 82.86 556.07 82.61 553.75 82.89C551.96 83.1 549.6 82.95 548.5 82.54C547.4 82.14 544.34 81.74 541.71 81.65L536.91 81.5L537.21 87ZM514 87L514 92C522.14 92.61 525.96 92.61 527.75 92.39C529.54 92.18 531.45 92 532 92C532.55 92 533 89.75 533 87L533 82L514 82L514 87Z" />
		<path id="Path 38" class="shp6" d="M79 85C79 85.55 80.35 86 82 86C83.65 86 85 85.55 85 85C85 84.45 83.65 84 82 84C80.35 84 79 84.45 79 85Z" />
		<path id="Path 39" class="shp10" d="M428.88 91.09C428.94 92.14 428.32 93.22 427.5 93.5C426.67 93.77 423.3 94 420 94C415.35 94 413.61 93.57 412.25 92.07C410.59 90.24 410.1 90.22 402.5 91.55C395.12 92.84 394.4 92.82 393.23 91.23C392.13 89.73 391.97 90.03 391.99 93.5C392 95.7 392.46 99.19 393.01 101.25L394 105C432.36 104.76 444.06 104.99 444.75 105.35C445.5 105.74 446.36 105.1 446.89 103.75C447.38 102.51 448.14 99.25 448.58 96.5C449.07 93.43 449.01 91.76 448.44 92.19C447.92 92.56 444.12 92.22 440 91.41C435.87 90.61 431.66 89.78 430.63 89.57C429.29 89.3 428.79 89.73 428.88 91.09ZM132.23 98.5C132.23 103.45 132.4 106.71 132.62 105.75C132.95 104.24 134.24 104 142 104L151 104L151 93C143.64 92.86 139.59 92.86 137.25 92.91C133.97 92.98 132.91 92.6 132.62 91.25C132.4 90.29 132.23 93.55 132.23 98.5ZM334.02 91.52C333.24 92.65 331 92.97 324.59 92.86C319.97 92.78 315.85 93 315.43 93.36C315.01 93.71 308.67 94 301.33 94C294 94 288 93.66 288 93.25C288 92.84 283.5 92.5 278 92.5L268 92.5C268.02 104.13 268.36 106.93 268.77 106.24C269.33 105.26 276.61 104.98 300.75 104.99L332 105C335.4 97.3 335.98 94.47 335.62 92.77C335.16 90.56 334.86 90.32 334.02 91.52ZM19 91.75C19 92.16 14.95 92.39 10 92.25L1 92L1 104C17.76 104 19.05 104.24 19.38 105.75C19.6 106.71 19.82 103.79 19.88 99.25C19.95 94.71 19.77 91 19.5 91C19.22 91 19 91.34 19 91.75ZM108.58 96.97C108.95 100.01 109.3 102.63 109.37 102.78C109.44 102.93 113.55 103.16 118.5 103.28L127.5 103.5L128 91C122.47 92.95 119.47 93.02 114.71 92.37L107.91 91.44L108.58 96.97ZM160.09 97.32L160.5 103.5C172.9 103.85 177.06 104.19 177.75 104.48C178.65 104.85 179 103.61 179 100C179 97.25 179.23 94.44 179.51 93.75C179.9 92.81 178.48 92.58 173.76 92.84C170.32 93.03 165.74 92.73 163.59 92.16L159.68 91.14L160.09 97.32ZM257.55 92C257.25 92.55 253.17 93 248.5 93L240 93L240 104.5C256.1 104.5 258.03 104.81 258.36 106C258.58 106.82 258.82 103.79 258.88 99.25C258.95 94.71 258.8 91 258.55 91C258.3 91 257.85 91.45 257.55 92ZM452.9 94.8C452.93 96.84 452.58 100.07 452.14 102L451.32 105.5C463.05 105.1 466 105.4 466 106C466 106.55 467.12 107 468.5 107C470.28 107 471.14 106.35 471.49 104.75C471.75 103.51 472.07 100.42 472.18 97.89L472.38 93.27C465.5 92.35 462.6 92.34 461.5 92.66C460.4 92.97 458 92.75 456.18 92.17L452.85 91.1L452.9 94.8ZM24.02 97.89L24.5 103.5L43 104C43 98.57 43.23 96.44 43.51 95.75C43.86 94.87 42.74 94.47 39.76 94.39C37.42 94.33 32.81 93.84 29.52 93.29L23.54 92.29L24.02 97.89ZM183.5 93.75C183.77 94.44 184 97.25 184 100L184 105L202.5 104.5L203.09 94.5C197.21 94.3 192.69 93.85 189.25 93.37C184.37 92.69 183.11 92.78 183.5 93.75ZM226.91 93.69C222.28 94.38 217.94 94.73 217.25 94.47C216.37 94.14 216 95.31 216 98.5C216 100.97 216.45 103.22 217 103.5C217.55 103.77 221.8 104.34 226.44 104.75C233.5 105.38 234.99 105.25 235.48 104C235.81 103.17 235.9 100.23 235.69 97.46L235.31 92.42L226.91 93.69ZM339.36 96.17C338.73 98.55 337.94 101.51 337.61 102.75C337.03 104.89 337.27 105 342.75 104.99C346.61 104.99 349.73 105.64 352.25 106.99C355.78 108.88 356.05 108.9 356.9 107.25C357.4 106.29 358.11 103.7 358.47 101.5C358.84 99.3 359.34 96.37 359.59 95L360.04 92.5L340.5 91.84L339.36 96.17ZM368.76 98C368.97 101.02 369.34 104.06 369.57 104.75C369.83 105.5 370.91 105.78 372.25 105.44C373.49 105.13 377.87 104.95 382 105.02L389.5 105.16C388.32 100 387.98 97.15 387.99 95.5L388 92.5L368.38 92.5L368.76 98ZM513.86 98.39L514 104.5L533 104.5L533 92.5L513.72 92.27L513.86 98.39ZM537.21 98.5L537.5 104.5C551.45 104 555.84 103.67 556.25 103.43C556.66 103.19 556.91 100.64 556.8 97.75L556.59 92.5L536.92 92.5L537.21 98.5Z" />
		<path id="Path 40" class="shp11" d="M108.51 103.75C108.78 104.44 109 106.12 109 107.5L109 110L127.5 109.5C128.09 103.5 128.09 103.5 123.3 103.84C120.66 104.02 116.14 103.79 113.26 103.34C109.21 102.69 108.13 102.78 108.51 103.75ZM24.21 106.5L24.5 109.5C42.42 109.98 43 109.87 43 108C43 106.9 43.23 105.44 43.51 104.75C43.9 103.8 41.62 103.5 33.97 103.5L23.91 103.5L24.21 106.5ZM160.21 106.5L160.5 109.5L179 110C179.49 104.45 179.31 104.34 174.5 104.03C171.75 103.86 167.34 103.67 164.71 103.61C159.96 103.5 159.91 103.53 160.21 106.5ZM216 105.88C216.44 108.17 217.04 108.53 220.75 108.75C223.09 108.89 225 109.45 225 110C225 110.57 227.25 110.89 230.25 110.75C235.29 110.51 235.51 110.38 235.8 107.5C236.09 104.5 236.09 104.5 231.3 104.84C228.66 105.02 224.03 104.74 221 104.21L215.5 103.25L216 105.88ZM555.94 103.32C555.67 103.67 551.28 104.08 546.18 104.23L536.91 104.5C537.48 110.32 537.81 110.53 542.5 111C545.25 111.27 549.36 111.27 551.64 111C553.92 110.72 556.07 110.27 556.42 110C556.77 109.72 556.92 107.97 556.75 106.09C556.58 104.21 556.22 102.97 555.94 103.32ZM1 107L1 110C19.83 110 19.99 109.96 19.51 107.75C19.25 106.51 19.02 105.16 19.01 104.75C19.01 104.34 14.95 104 10 104L1 104L1 107ZM132.61 106.25C132.29 107.49 132.02 108.84 132.01 109.25C132.01 109.66 136.27 110 141.5 110L151 110L151 104C133.7 104 133.16 104.13 132.61 106.25ZM183.68 107C184.01 108.38 184.47 109.72 184.7 110C184.94 110.27 189.04 110.05 193.81 109.5C201.34 108.63 202.54 108.23 202.79 106.5C203.06 104.61 202.5 104.5 193.08 104.5L183.09 104.5L183.68 107ZM241.05 104.67C240.16 104.98 239.68 106.29 239.8 108.08L240 111C255.02 110.6 259 110.08 258.99 109.5C258.98 108.95 258.73 107.6 258.43 106.5C257.95 104.74 256.97 104.48 250.19 104.34C245.96 104.25 241.85 104.4 241.05 104.67ZM284.5 104.72C274.2 104.97 269.27 105.46 268.77 106.29C268.36 106.96 268.02 108.17 268.02 109C268 110.11 269.22 110.52 272.75 110.58C275.36 110.62 287.85 110.81 300.5 110.99C315.4 111.2 324.2 110.95 325.5 110.26C326.6 109.68 328.4 108.24 329.5 107.07L331.5 104.93C312.12 104.97 304.92 104.84 303 104.67C301.07 104.5 292.75 104.52 284.5 104.72ZM333.98 107.73L332 111C337.42 111 339.22 111.45 339.5 112C339.77 112.55 341.35 113 343 113C344.65 113 346.67 113.22 347.5 113.5C348.32 113.77 349 114.9 349 116C349 117.1 349.56 118.01 350.25 118.03C350.94 118.05 352.74 115.8 354.25 113.03C355.76 110.26 356.66 108.1 356.25 108.21C355.84 108.33 354.37 107.8 353 107.04C351.62 106.27 347.23 105.38 343.23 105.06L335.96 104.47L333.98 107.73ZM372.81 105.51C371.54 106.06 370.39 107.07 370.25 107.76C370.11 108.44 370.45 109.9 371 111C371.87 112.75 372.47 112.88 375.75 112.06C377.81 111.54 382.05 111.21 385.17 111.31C388.29 111.42 391.1 111.27 391.42 111C391.75 110.72 391.45 109.15 390.75 107.5C389.53 104.56 389.35 104.5 382.31 104.5C378.35 104.5 374.08 104.95 372.81 105.51ZM415.75 104.71C399.75 104.93 395.07 105.29 395.33 106.25C395.51 106.94 397.08 108.51 398.83 109.75C400.65 111.04 402.85 111.79 404 111.5C405.1 111.22 406 111.45 406 112C406 112.55 407.24 112.78 408.75 112.52C410.26 112.25 417.8 111.86 425.5 111.65C436.14 111.36 440.16 110.88 442.25 109.63C443.76 108.74 445 107.32 445 106.5C445 105.62 444.08 104.99 442.75 104.99C441.51 104.98 439.6 104.85 438.5 104.7C437.4 104.55 427.16 104.55 415.75 104.71ZM451.59 105.25C451.82 105.66 451.66 105.99 451.25 105.97C450.84 105.96 449.99 106.97 449.37 108.22C448.26 110.46 448.37 110.51 455.87 111.34C460.07 111.81 464.06 112.37 464.75 112.59C465.44 112.82 466 113.67 466 114.5C466 115.32 466.45 116 467 116C467.55 116 468.39 114.99 468.87 113.75C469.34 112.51 470.02 110.49 470.37 109.25C470.9 107.35 470.61 107 468.5 107C467.12 107 466 106.55 466 106C466 105.45 462.7 104.89 458.59 104.75C454.52 104.61 451.37 104.84 451.59 105.25ZM517.25 104.66C514.38 104.96 514 105.35 514 108L514 111L533 111C533.04 105.96 532.5 105.37 529.77 104.74C527.97 104.32 525.15 104.05 523.5 104.15C521.85 104.24 519.04 104.47 517.25 104.66Z" />
		<path id="Path 41" class="shp12" d="M196.38 109.27C193.15 109.71 188.81 109.95 186.74 109.79C184.05 109.58 183.13 109.85 183.49 110.75C183.77 111.44 184 113.12 184 114.5C184 116.89 184.27 117 190 117C193.33 117 196 117.44 196 118C196 118.55 197.35 119 199 119C200.65 119 202.24 118.44 202.54 117.75C202.84 117.06 202.9 114.69 202.67 112.48L202.26 108.46L196.38 109.27ZM216.21 112.5L216.5 116.5L235.5 116.5L236.09 110.5C227.35 110.89 225 110.58 225 110C225 109.45 222.96 108.89 220.46 108.75L215.91 108.5L216.21 112.5ZM24.2 113L24.5 116.5C38.45 117.77 42.55 117.99 42.61 117.82C42.67 117.64 42.95 115.7 43.23 113.5L43.74 109.5L23.91 109.5L24.2 113ZM108.72 112.5C109.03 114.15 109.34 115.63 109.39 115.78C109.45 115.93 113.55 116.16 118.5 116.28L127.5 116.5L128.09 109.5L108.15 109.5L108.72 112.5ZM160.2 112.93L160.5 116.37L179 117C179 113.12 179.23 111.44 179.51 110.75C179.9 109.8 177.62 109.5 169.97 109.5L159.91 109.5L160.2 112.93ZM0.98 112.75C0.97 115.26 1.38 115.57 5.73 116.26C8.36 116.67 12.41 117.01 14.75 117.01C18.94 117 19 116.95 19 113.5L19 110L1 110L0.98 112.75Z" />
		<path id="Path 42" class="shp13" d="M19.39 123C19.39 130.42 19.55 133.35 19.74 129.5C19.93 125.65 19.93 119.57 19.74 116C19.55 112.42 19.39 115.57 19.39 123ZM132.39 123C132.39 130.42 132.55 133.35 132.74 129.5C132.93 125.65 132.93 119.57 132.74 116C132.55 112.42 132.39 115.57 132.39 123Z" />
		<path id="Path 43" class="shp12" d="M133 113.5C133 116.97 133.04 117 137.75 117.25C140.36 117.39 144.41 117.39 146.75 117.25C150.89 117.01 151 116.91 151 113.5L151 110L133 110L133 113.5ZM248.25 110.71L240 111C239.98 116.39 240.23 116.53 246.24 117.14C249.68 117.49 253.74 117.6 255.25 117.39C257.41 117.08 258 116.47 258 114.5C258 113.12 258 111.66 258 111.25C258 110.84 257.66 110.48 257.25 110.46C256.84 110.44 252.79 110.56 248.25 110.71ZM268.69 110.87C268.31 111.49 268.11 112.11 268.25 112.25C268.39 112.39 276.15 112.26 285.5 111.96C299.21 111.53 300.47 111.39 292 111.22C286.22 111.1 278.77 110.73 275.44 110.38C271.39 109.95 269.16 110.12 268.69 110.87ZM391.71 110.62C391.47 110.91 387.28 111.34 382.39 111.59C377.5 111.83 373.01 112.14 372.41 112.27C371.81 112.4 371.47 113.29 371.66 114.25C371.85 115.21 372.51 116 373.12 116C373.74 116 373.97 116.45 373.62 117C373.28 117.55 373.45 118 374 118C374.55 118 374.66 118.53 374.25 119.19C373.69 120.06 374.41 120.18 377 119.62C378.92 119.21 381.62 118.74 383 118.59C384.37 118.43 387.07 117.94 389 117.49C390.92 117.04 393.74 116.74 395.25 116.84C396.76 116.93 398.2 116.66 398.44 116.25C398.68 115.84 397.36 114.29 395.5 112.8C393.65 111.32 391.94 110.33 391.71 110.62ZM537.28 113.15C537.49 116.4 537.65 116.51 542.5 117C545.25 117.27 549.52 117.27 552 117C556.24 116.53 556.51 116.31 556.75 113.25C556.98 110.32 556.78 110.06 554.75 110.62C553.51 110.96 549.46 111.18 545.75 111.12C542.04 111.05 538.56 110.73 538.03 110.4C537.47 110.05 537.16 111.19 537.28 113.15ZM308 111.39C308.27 111.64 311.28 111.99 314.67 112.17C318.07 112.35 321.18 112.16 321.59 111.75C322 111.34 319 110.99 314.92 110.97C310.84 110.96 307.72 111.15 308 111.39ZM328.83 113.25L326.15 115.5C331.07 117.34 334.19 118.13 336.25 118.44C338.67 118.8 340 119.53 340 120.5C340 121.32 341.12 122.22 342.5 122.5C344.22 122.84 345.94 122.22 348 120.5C349.65 119.12 350.55 118 350 118C349.45 118 349 117.1 349 116C349 114.9 348.32 113.77 347.5 113.5C346.67 113.22 344.65 113 343 113C341.35 113 339.77 112.55 339.5 112C339.22 111.45 337.31 111 335.25 111C332.82 111 330.56 111.8 328.83 113.25ZM446.5 112.15C445.4 112.82 443.94 113.96 443.25 114.69C442.23 115.76 442.6 116.08 445.25 116.41C447.04 116.63 450.3 117.3 452.5 117.89C454.7 118.48 456.72 119.35 457 119.82C457.27 120.29 458.96 121.2 460.75 121.84C463.85 122.95 464.09 122.85 465.99 119.75C467.09 117.96 467.54 116.39 466.99 116.25C466.45 116.11 466 115.32 466 114.5C466 113.67 465.44 112.82 464.75 112.59C464.06 112.37 460.12 111.9 456 111.56C450.85 111.13 447.87 111.31 446.5 112.15ZM513.98 113.25C513.97 115.17 514.68 115.61 518.73 116.26C521.36 116.67 525.64 117.01 528.25 117.01C532.86 117 533 116.91 533 114L533 111C514.32 111 514 111.08 513.98 113.25Z" />
		<path id="Path 44" class="shp13" d="M258.39 124C258.39 130.87 258.55 133.57 258.74 130C258.94 126.42 258.94 120.8 258.74 117.5C258.55 114.2 258.39 117.12 258.39 124ZM281 112.75C287.87 112.92 299.57 112.92 307 112.75C314.42 112.58 308.8 112.44 294.5 112.44C280.2 112.44 274.12 112.58 281 112.75ZM414.5 112.74C418.35 112.93 424.2 112.93 427.5 112.74C430.8 112.54 427.65 112.39 420.5 112.39C413.35 112.39 410.65 112.55 414.5 112.74Z" />
		<path id="Path 45" class="shp14" d="M108.51 116.75C108.78 117.44 109 118.9 109 120C109 121.56 109.67 122 112 122C114 122 115 122.5 115 123.5C115 124.71 115.78 124.86 119.06 124.25C122.2 123.67 123.32 123.84 123.97 125C124.51 125.94 125.41 126.22 126.41 125.75C127.5 125.24 128 123.65 128 120.75L128 116.5C120.64 117.02 116.14 116.79 113.26 116.34C109.21 115.69 108.13 115.78 108.51 116.75ZM323.6 115.78C323.38 116.11 322.14 116.57 320.85 116.81C319.56 117.05 307.36 117.42 293.75 117.63C270.99 117.97 269 118.14 269 119.75C269 121.33 270.29 121.5 282 121.5C289.15 121.5 295.01 121.72 295.02 122C295.03 122.27 296.94 122.2 299.27 121.83C301.6 121.46 303.62 121.46 303.77 121.83C303.92 122.2 305.95 122.2 308.27 121.83C310.6 121.46 312.62 121.46 312.77 121.83C312.91 122.2 315.05 122.27 317.53 122C321.34 121.58 322.02 121.77 322.01 123.25C322 124.4 322.77 125 324.25 125.01C325.49 125.02 327.51 125.25 328.75 125.51C330.17 125.82 331 126.74 331 128C331 129.36 331.88 130.21 333.75 130.65C335.49 131.07 336.59 130.89 336.75 130.15C336.89 129.52 337.67 129 338.5 129C339.32 129 340 128.55 340 128C340 127.45 340.67 127 341.5 127C342.32 127 343.45 126.1 344 125C344.85 123.3 344.62 122.92 342.5 122.5C341.12 122.22 340.01 121.44 340.02 120.75C340.03 120.06 337.9 118.98 335.27 118.35C332.65 117.72 329.04 116.75 327.26 116.19C325.48 115.64 323.83 115.45 323.6 115.78ZM398.61 116.14C397.68 116.68 396 117 394.86 116.86C393.71 116.72 391.14 116.99 389.14 117.47C387.14 117.94 384.82 118.25 384 118.17C383.17 118.08 380.82 118.57 378.77 119.25L375.03 120.5C379.4 125.92 381.98 127.8 383.59 128.18C385.65 128.66 387.52 128.26 390 126.83C392.16 125.57 393.6 125.22 393.75 125.9C393.93 126.69 394.63 126.68 396.25 125.85C397.49 125.22 398.72 124.29 399 123.79C399.27 123.28 400.62 122.72 402 122.54C403.37 122.36 406.19 121.94 408.25 121.6C410.49 121.24 412 121.4 412 122C412 122.6 414.49 122.84 418.25 122.6C421.69 122.39 427.76 121.94 431.75 121.6C437.8 121.1 439 121.25 439 122.5C439 123.32 440.01 124.22 441.25 124.49C442.49 124.75 444.51 124.98 445.75 124.99C447.33 125 448 125.6 448 127C448 128.41 448.95 129.25 451.25 129.85C453.04 130.32 455.17 130.34 456 129.89C456.82 129.44 458.96 127.71 460.75 126.04L464 123C460.12 121.45 458.55 121 458 121C457.45 121 456.89 120.53 456.75 119.96C456.61 119.38 454.7 118.45 452.5 117.88C450.3 117.31 446.56 116.55 444.2 116.17C441.83 115.8 439.65 115.72 439.35 116C439.05 116.27 437.61 116.7 436.15 116.95C434.69 117.19 427.65 117.39 420.5 117.39C413.35 117.39 406.37 117.17 405 116.9C403.62 116.63 402 116.12 401.4 115.78C400.79 115.44 399.54 115.6 398.61 116.14ZM1.12 118.61C0.96 121.15 1.46 121.71 5.22 123.18C7.57 124.11 11.07 125.28 13 125.78C14.92 126.28 17.06 126.53 17.75 126.34C18.51 126.13 19 124.25 19 121.5L19 117C12.41 117.01 8.43 116.73 5.91 116.37C1.39 115.74 1.31 115.78 1.12 118.61ZM23.8 120.68C23.91 123.06 24.56 125.25 25.25 125.57C25.94 125.88 28.19 125.65 30.25 125.07C33.69 124.09 34 124.17 34 126C34 127.7 34.67 128 38.5 128L43 128C43 121.8 43.22 119.44 43.5 118.75C43.84 117.88 43.09 117.6 41.05 117.81C39.44 117.98 34.85 117.72 30.85 117.24L23.59 116.36L23.8 120.68ZM159.76 119.96C159.86 121.91 160.18 123.84 160.47 124.25C160.76 124.66 162.24 124.33 163.75 123.51C165.26 122.68 167.06 122.01 167.75 122.01C168.44 122 169.01 122.79 169.01 123.75C169.02 125.23 169.72 125.42 173.5 125C176.02 124.72 178.16 124.94 178.41 125.5C178.65 126.05 178.88 124.81 178.92 122.75C178.96 120.69 179.23 118.44 179.51 117.75C179.89 116.8 177.56 116.49 169.8 116.46L159.58 116.42L159.76 119.96ZM183.49 117.75C183.77 118.44 184 120.35 184 122C184 124.22 184.39 124.87 185.5 124.5C186.32 124.22 187 124.45 187 125C187 125.59 188.83 125.8 191.5 125.5C195.5 125.06 196 125.22 196 127C196 128.64 196.58 128.96 199.25 128.75C202.41 128.51 202.51 128.36 202.79 123.5L203.07 118.5C197.59 118.89 196 118.55 196 118C196 117.45 193.07 116.89 189.49 116.75C184.6 116.56 183.1 116.81 183.49 117.75ZM216.2 120C216.48 123.28 216.7 123.48 219.75 123.25C222.08 123.07 223 123.42 223 124.5C223 125.72 223.83 125.86 227.52 125.25C230.86 124.69 232.03 124.82 232.02 125.75C232 126.67 232.53 126.73 234 126C235.53 125.24 236 124 236 120.75L236 116.5L215.91 116.5L216.2 120ZM514.16 117.86C514.03 119.61 514.55 120 517 120C519 120 520 120.5 520 121.5C520 122.69 520.88 122.88 524.25 122.42C526.92 122.06 528.69 122.25 529 122.95C529.27 123.55 530.29 123.82 531.25 123.53C532.41 123.18 533 121.99 533 120C533 117.09 532.86 117 528.25 117.01C525.64 117.01 521.43 116.73 518.91 116.37C514.71 115.78 514.3 115.91 514.16 117.86ZM537.21 120C537.37 121.92 537.95 123.44 538.5 123.37C539.05 123.3 541.19 122.96 543.25 122.62C546.67 122.06 547.04 122.22 547.5 124.5C547.83 126.17 548.67 127 550 127C551.1 127 553.12 126.55 554.5 126C556.62 125.15 557 124.35 557 120.75L556.99 116.5C549.64 117.28 545.12 117.28 542.21 117L536.92 116.5L537.21 120ZM132.96 121.54L133 126C141.83 123.06 142 123.07 142 125C142 126.75 142.47 126.93 145.75 126.41C147.81 126.08 149.84 125.63 150.25 125.41C150.66 125.18 150.98 123.22 150.96 121.05L150.92 117.11L132.92 117.08L132.96 121.54ZM240.18 121.26C240.41 124.28 240.93 125.47 242 125.39C242.82 125.34 244.96 125 246.75 124.64C249.26 124.15 250 124.34 250 125.5C250 126.32 250.67 127 251.5 127C252.32 127 254.14 126.44 255.53 125.75C257.54 124.76 258.05 123.77 258.02 120.97L257.97 117.44L239.85 117.02L240.18 121.26Z" />
		<path id="Path 46" class="shp13" d="M268.21 126.75L268.42 136.5L269 118L317.5 117.46L268 117L268.21 126.75ZM414.5 117.74C418.35 117.93 424.2 117.93 427.5 117.74C430.8 117.54 427.65 117.39 420.5 117.39C413.35 117.39 410.65 117.55 414.5 117.74Z" />
		<path id="Path 47" class="shp15" d="M514 123C514 125 514.5 126 515.5 126C516.32 126 517 125.55 517 125C517 124.45 517.67 124 518.5 124C519.32 124 520 124.45 520 125C520 125.55 522.02 126.22 524.5 126.5C527.61 126.85 529 127.46 529 128.5C529 129.36 529.75 129.89 530.75 129.74C531.94 129.57 532.58 128.44 532.75 126.24C532.97 123.45 532.72 123.07 531 123.5C529.9 123.77 529 123.55 529 123C529 122.41 527.17 122.2 524.5 122.5C520.94 122.9 520 122.69 520 121.5C520 120.5 519 120 517 120C514.33 120 514 120.33 514 123ZM108.5 122.75C108.77 123.44 109 124.45 109 125C109 125.55 110.35 126 112 126C113.65 126 115 126.45 115 127C115 127.55 117.02 128 119.5 128C121.97 128 124.11 128.48 124.25 129.06C124.39 129.64 125.29 129.86 126.25 129.56C127.21 129.25 128 128.1 128 127C128 125.5 127.5 125.12 126 125.5C124.8 125.8 124.01 125.5 124.02 124.75C124.03 123.82 122.86 123.69 119.52 124.25C116.01 124.83 114.95 124.69 114.77 123.61C114.65 122.84 113.07 122.06 111.27 121.86C108.94 121.6 108.14 121.86 108.5 122.75ZM270.51 121.8C269.31 122.01 268.62 122.81 268.78 123.82C268.95 124.96 269.84 125.42 271.52 125.25C272.88 125.11 274 124.55 274 124C274 123.45 274.67 123 275.5 123C276.32 123 277.11 123.46 277.25 124.03C277.4 124.63 280.73 125.05 285.25 125.03C289.51 125.01 293.45 124.77 294 124.5C294.55 124.22 295.11 124.5 295.25 125.1C295.43 125.91 296.6 125.91 299.5 125.14C302.34 124.37 303.65 124.37 304 125.13C304.35 125.88 305.71 125.82 308.5 124.96C311.46 124.04 312.56 124.01 312.75 124.86C312.89 125.51 314.93 126 317.5 126C321.63 126 322 126.2 322 128.5C322 130.8 322.37 131 326.5 131C328.97 131 331 131.45 331 132C331 132.57 331.97 132.71 333.25 132.33L335.5 131.67C331.96 129.99 330.95 128.71 330.97 127.75C330.99 126.73 330.06 125.8 328.75 125.51C327.51 125.25 325.49 125.02 324.25 125.01C322.77 125 322 124.4 322.01 123.25C322.02 121.77 321.34 121.58 317.53 122C315.05 122.27 312.91 122.2 312.77 121.83C312.62 121.46 310.6 121.46 308.27 121.83C305.95 122.2 303.92 122.2 303.77 121.83C303.62 121.46 301.6 121.46 299.27 121.83C296.94 122.2 295.03 122.27 295.02 122C295.01 121.72 289.93 121.49 283.75 121.47C277.56 121.46 271.6 121.6 270.51 121.8ZM407.92 121.44C407.69 121.68 405.92 122.07 403.98 122.31C402.04 122.55 400.02 123.19 399.48 123.72C398.94 124.26 397.49 125.22 396.25 125.85C394.63 126.68 393.93 126.69 393.75 125.9C393.6 125.22 392.06 125.6 389.75 126.9C387.69 128.05 385.55 128.77 385 128.5C384.45 128.22 384 128.45 384 129C384 129.55 384.67 130 385.5 130C386.32 130 387 130.45 387 131C387 131.57 388.5 131.36 390.5 130.5C393.83 129.07 394 129.1 394 131C394 132.1 394.34 132.98 394.75 132.95C395.16 132.93 396.77 131.58 398.33 129.95C399.88 128.32 401.91 126.81 402.83 126.6C403.75 126.39 406.19 125.5 408.25 124.61C410.31 123.73 412 122.55 412 122C412 121.45 411.17 121 410.17 121C409.16 121 408.15 121.2 407.92 121.44ZM425.8 122.21C423.98 122.59 421.82 122.69 421 122.41C420.17 122.14 417.81 122.16 415.75 122.46C413.32 122.81 412 123.53 412 124.5C412 125.55 412.68 125.84 414.25 125.47C415.49 125.18 419.42 124.89 423 124.83C426.57 124.76 431.64 124.78 434.25 124.86C438.29 124.98 439 125.3 439 127C439 128.63 439.83 129.09 443.5 129.5C446.61 129.85 448 130.46 448 131.5C448 132.54 448.69 132.84 450.25 132.49C451.49 132.21 452.84 131.65 453.25 131.24C453.66 130.83 452.65 130.16 451 129.75C448.92 129.23 448 128.39 448 127C448 125.6 447.33 125 445.75 124.99C444.51 124.98 442.44 124.7 441.15 124.37C439.86 124.04 438.74 123.12 438.66 122.33C438.56 121.26 437.33 120.98 433.81 121.2C431.22 121.36 427.61 121.82 425.8 122.21ZM0.97 123.75C0.94 125.05 2.99 126.2 8.97 128.25C13.39 129.76 17.45 130.77 18 130.5C18.55 130.22 19 129.21 19 128.25C19 127.05 18.15 126.45 16.25 126.33C14.74 126.24 10.97 125.23 7.88 124.08C4.78 122.94 1.97 122 1.63 122C1.28 122 0.99 122.79 0.97 123.75ZM163.75 123.51C162.24 124.33 160.76 124.66 160.47 124.25C160.18 123.84 159.96 124.29 159.97 125.25C159.99 126.21 160.45 127.22 161 127.5C161.55 127.77 163.58 127.44 165.51 126.75C167.73 125.96 169.02 124.85 169.01 123.75C169.01 122.79 168.44 122 167.75 122.01C167.06 122.01 165.26 122.68 163.75 123.51ZM543.92 122.45C543.69 122.7 542.04 123.03 540.25 123.2C537.63 123.44 536.99 123.94 537 125.75C537 126.99 537.34 128.18 537.75 128.41C538.16 128.63 540.4 128.52 542.73 128.16C545.32 127.76 546.97 127.89 546.99 128.5C547 129.09 548.93 129.3 551.74 129C555.25 128.63 556.54 128.05 556.74 126.75C556.96 125.26 556.62 125.15 554.5 126C553.12 126.55 551.1 127 550 127C548.67 127 547.83 126.17 547.5 124.5C547.22 123.12 546.4 122 545.67 122C544.93 122 544.15 122.2 543.92 122.45ZM137.64 124.54C135.67 125.17 133.76 126.54 133.39 127.59C132.77 129.34 133.04 129.43 136.61 128.67C138.75 128.22 140.87 127.54 141.31 127.17C141.76 126.8 141.92 125.8 141.68 124.95C141.3 123.63 140.68 123.57 137.64 124.54ZM216.22 125.5C216.44 127.09 217.16 127.45 219.75 127.25C222.08 127.07 223 127.42 223 128.5C223 129.65 223.77 129.86 226.25 129.41C228.04 129.09 230.06 128.64 230.75 128.41C231.44 128.19 232 128.67 232 129.5C232 130.39 232.61 130.8 233.5 130.5C234.32 130.22 235.22 130 235.5 130C235.77 130 236 128.87 236 127.5C236 125.33 235.73 125.13 234 126C232.53 126.73 232 126.67 232.02 125.75C232.03 124.82 230.86 124.69 227.52 125.25C223.83 125.86 223 125.72 223 124.5C223 123.4 222.05 123.07 219.47 123.25C216.57 123.45 215.99 123.86 216.22 125.5Z" />
		<path id="Path 48" class="shp16" d="M274 124C274 124.55 272.99 125.11 271.75 125.25C269.91 125.45 269.45 126.19 269.25 129.25C269.11 131.31 269.45 133 270 133C270.55 133 270.89 131.78 270.75 130.28C270.55 128.1 271.06 127.35 273.3 126.53C275.24 125.82 276.32 125.82 276.8 126.55C277.23 127.19 282.58 127.58 290.75 127.55L304 127.5C303.95 134.45 304 134.49 307.23 133.72C309.03 133.29 310.93 132.5 311.45 131.97C312.06 131.35 311.6 131 310.2 131C308.99 131 307.32 130.32 306.5 129.5C305.17 128.17 305.44 127.97 309 127.75C312.89 127.51 313 127.58 313 130.75C313 133.97 313.04 134 317.49 133.75C320.34 133.59 322.16 133.95 322.49 134.75C322.77 135.44 323.78 135.73 324.75 135.4C325.71 135.08 327.17 134.66 328 134.48C328.82 134.3 330.06 134.12 330.75 134.08C331.44 134.03 331.77 133.32 331.5 132.5C331.15 131.46 329.61 131 326.5 131C322.37 131 322 130.8 322 128.5C322 126.2 321.63 126 317.5 126C315.02 126 312.73 125.49 312.39 124.86C311.94 124 310.85 124.03 308.14 124.96C305.61 125.82 304.35 125.88 304 125.13C303.65 124.37 302.34 124.37 299.5 125.14C296.6 125.91 295.43 125.91 295.25 125.1C295.11 124.5 294.55 124.22 294 124.5C293.45 124.77 289.51 125.01 285.25 125.03C280.73 125.05 277.4 124.63 277.25 124.03C277.11 123.46 276.32 123 275.5 123C274.67 123 274 123.45 274 124ZM407.88 124.76C406.02 125.56 403.6 126.38 402.5 126.59C401.4 126.81 399.37 128.31 398 129.94C396.62 131.57 395.16 132.93 394.75 132.95C394.34 132.98 394 132.1 394 131C394 129.2 393.75 129.12 391.47 130.25C390.08 130.94 388.96 131.84 388.97 132.25C388.99 132.66 390.69 133.32 392.75 133.7C394.81 134.09 396.95 134.46 397.5 134.52C398.05 134.58 399.4 134.22 400.5 133.72C401.82 133.11 402.67 133.17 403 133.9C403.36 134.69 404.65 134.63 407.5 133.68C410.58 132.66 411.1 132.2 409.75 131.68C408.79 131.3 408 130.32 408 129.5C408 128.67 409.01 127.77 410.25 127.49C411.49 127.22 416.44 126.88 421.25 126.74C426.06 126.61 429.99 126.84 430 127.25C430 127.66 432.02 128 434.5 128C437.83 128 439 127.61 439 126.5C439 125.4 437.74 124.96 434.25 124.86C431.64 124.78 426.57 124.76 423 124.83C419.42 124.89 415.49 125.18 414.25 125.47C412.85 125.8 411.86 125.49 411.63 124.65C411.33 123.53 410.68 123.55 407.88 124.76Z" />
		<path id="Path 49" class="shp15" d="M30.4 125.18C28.8 125.65 26.71 125.8 25.75 125.52C24.49 125.15 24 125.57 24 127C24 128.1 24.45 129.22 25 129.5C25.55 129.77 27.46 129.49 29.25 128.86C31.04 128.24 32.88 127.45 33.34 127.11C33.8 126.78 33.98 126.01 33.74 125.41C33.45 124.7 32.3 124.62 30.4 125.18ZM173.51 124.99C170.54 125.37 169.42 126.01 169.13 127.5C168.76 129.35 169.08 129.44 173.37 128.75C176.79 128.2 178.02 128.33 178.09 129.25C178.13 129.94 178.56 129.15 179.04 127.5C179.52 125.85 179.7 124.27 179.43 124C179.16 123.72 178.95 124.17 178.96 125C178.96 125.88 178.67 126.09 178.23 125.49C177.83 124.94 175.7 124.72 173.51 124.99ZM183.49 125.75C183.77 126.44 184 127.45 184 128C184 128.55 184.5 128.66 185.11 128.25C185.72 127.84 186.51 128.04 186.86 128.7C187.33 129.57 188.65 129.64 191.75 128.95C194.44 128.35 196 127.45 196 126.5C196 125.31 195.06 125.1 191.5 125.5C189.02 125.77 186.9 125.65 186.79 125.21C186.67 124.78 185.76 124.44 184.77 124.46C183.74 124.48 183.19 125.03 183.49 125.75ZM244.5 125.03C242.85 125.51 241.09 125.58 240.59 125.2C240.08 124.81 239.86 125.39 240.1 126.5C240.33 127.6 241.42 128.64 242.51 128.8C243.6 128.97 245.74 128.63 247.25 128.05C248.76 127.47 250 126.32 250 125.5C250 124.67 249.44 124.04 248.75 124.09C248.06 124.13 246.15 124.56 244.5 125.03Z" />
		<path id="Path 50" class="shp13" d="M517 125.5C517 126.32 516.32 127 515.5 127C514.67 127 514 127.89 514 129C514 130.11 514.67 131 515.5 131C516.43 131 517 131.94 517 133.5C517 135.96 517.13 136 525 136C532.87 136 533 135.96 533 133.5C533 131.83 532.33 130.83 531 130.5C529.9 130.22 529 129.32 529 128.5C529 127.46 527.61 126.85 524.5 126.5C522.02 126.22 520 125.55 520 125C520 124.45 519.32 124 518.5 124C517.67 124 517 124.67 517 125.5Z" />
		<path id="Path 51" class="shp16" d="M108.5 126.75C108.77 127.44 109 128.22 109 128.5C109 128.77 110.35 129 112 129C114.2 129 115 129.47 114.98 130.75C114.97 132.27 115.56 132.4 119.48 131.75C123.58 131.07 124 131.18 124 133C124 134.67 124.33 134.83 126 134C127.1 133.45 128 132.1 128 131C128 129.5 127.5 129.12 126 129.5C124.9 129.77 124 129.55 124 129C124 128.45 121.97 128 119.5 128C117.02 128 114.9 127.6 114.77 127.11C114.65 126.62 113.07 126.06 111.27 125.86C108.94 125.6 108.14 125.86 108.5 126.75Z" />
		<path id="Path 52" class="shp15" d="M146.08 126.48C143.81 127.04 141.97 128.06 141.98 128.75C141.99 129.49 143.32 129.99 145.25 129.98C147.04 129.98 149.1 129.64 149.82 129.23C150.55 128.83 150.93 127.82 150.67 126.98C150.28 125.72 149.5 125.63 146.08 126.48ZM253.24 126.39C251.21 127.08 249.98 128.16 249.99 129.25C250 130.21 250.67 131 251.5 131C252.32 131 254.14 130.44 255.53 129.75C256.92 129.06 258.04 127.71 258.03 126.75C258.01 125.79 257.66 125.06 257.25 125.14C256.84 125.22 255.03 125.78 253.24 126.39Z" />
		<path id="Path 53" class="shp16" d="M1.16 127.57C1.35 128.43 4.87 130.63 9 132.44C13.12 134.26 17.06 135.57 17.75 135.37C18.44 135.17 19 133.88 19 132.5C19 131.12 18.55 130.22 18 130.5C17.45 130.77 13.62 129.87 9.5 128.5C5.37 127.12 1.73 126 1.41 126C1.09 126 0.97 126.71 1.16 127.57ZM164.75 127.03C163.79 127.56 162.32 127.77 161.5 127.5C160.49 127.16 160.09 127.57 160.29 128.75C160.45 129.71 161.23 130.4 162.04 130.28C162.84 130.16 164.74 129.82 166.25 129.53C168.66 129.07 169 129.31 169 131.5C169 133.79 169.27 133.94 172.25 133.34C174.04 132.98 175.61 132.3 175.75 131.84C175.89 131.38 176.45 131 177 131C177.55 131 177.99 132.01 177.97 133.25C177.96 134.49 178.12 135.27 178.33 135C178.54 134.72 179 132.92 179.35 131C179.81 128.54 179.71 127.94 179.01 129C178.36 130 178.03 130.09 178.02 129.25C178 128.32 176.83 128.19 173.49 128.75C169.57 129.4 168.98 129.27 168.99 127.75C168.99 126.79 168.44 126.01 167.75 126.03C167.06 126.05 165.71 126.5 164.75 127.03Z" />
		<path id="Path 54" class="shp17" d="M272 126.97C271.16 127.48 270.61 129.01 270.75 130.44C270.89 131.85 270.55 133 270 133C269.45 133 269 133.67 269 134.5C269 135.8 272.67 136 296 136C317.21 136 322.89 135.73 322.49 134.75C322.16 133.95 320.34 133.59 317.49 133.75C313.04 134 313 133.97 313 130.75C313 127.58 312.89 127.51 309 127.75C305.44 127.97 305.17 128.17 306.5 129.5C307.32 130.32 308.99 131 310.2 131C311.6 131 312.06 131.35 311.45 131.97C310.93 132.5 309.03 133.29 307.23 133.72C304 134.49 303.95 134.45 303.98 131L304 127.5C283.08 127.5 277 127.16 277 126.75C277 126.34 276.21 126.01 275.25 126.03C274.29 126.05 272.82 126.47 272 126.97ZM416 126.77C414.07 126.92 411.49 127.26 410.25 127.52C409.01 127.78 408 128.67 408 129.5C408 130.32 408.79 131.3 409.75 131.68C411.1 132.2 410.58 132.66 407.5 133.68C404.84 134.56 403.33 134.66 403 133.98C402.72 133.41 401.6 133.24 400.5 133.6C398.84 134.14 398.75 134.39 400 135.07C400.82 135.52 410.16 135.91 420.75 135.95C438.12 135.99 439.93 135.84 439.25 134.39C438.69 133.18 437.43 132.86 434.25 133.14C431.32 133.39 430 133.11 430 132.25C430 131.32 431.17 131.19 434.51 131.75C438.75 132.45 439.03 132.36 439.01 130.25C439 128.25 438.5 128 434.5 128C432.02 128 430 127.66 430 127.25C430 126.84 427.64 126.5 424.75 126.5C421.86 126.5 417.92 126.62 416 126.77Z" />
		<path id="Path 55" class="shp16" d="M29.75 128.57C27.69 129.36 25.55 129.77 25 129.5C24.45 129.22 24 129.9 24 131C24 132.1 24.45 133.22 25 133.5C25.55 133.77 27.8 133.21 30 132.25C32.49 131.16 34.01 129.84 34 128.75C34 127.79 33.89 127.03 33.75 127.07C33.61 127.11 31.81 127.78 29.75 128.57Z" />
		<path id="Path 56" class="shp15" d="M38.75 127.75C34.27 127.99 34 128.16 34.08 130.75C34.12 132.26 34.35 132.94 34.58 132.25C34.82 131.53 36.69 131 39 131C41.93 131 43.07 130.56 43.27 129.36C43.42 128.45 43.53 127.67 43.52 127.61C43.51 127.55 41.36 127.61 38.75 127.75Z" />
		<path id="Path 57" class="shp16" d="M137.08 128.48C133.76 129.3 132.96 129.94 132.98 131.75C133 133.89 133.17 133.94 136.52 132.75C138.46 132.06 140.03 131.16 140.02 130.75C140.01 130.34 140.45 130 141 130C141.55 130 142 131.12 142 132.5C142 134.33 142.53 135 144 135C145.1 135 147.14 134.44 148.53 133.75C149.92 133.06 151.04 131.71 151.03 130.75C151 129.24 150.4 129.1 146.61 129.75C143.1 130.35 142.11 130.19 141.7 128.98C141.28 127.72 140.49 127.63 137.08 128.48ZM216.23 129C216.4 129.9 217.82 130.6 219.76 130.75C221.54 130.89 223 131.45 223 132C223 132.55 225.02 133 227.5 133C230.43 133 232 133.44 232 134.25C232 134.94 232.9 135.5 234 135.5C235.52 135.5 236 134.83 236 132.75C236 130.5 235.64 130.09 234 130.5C232.67 130.83 232 130.5 232 129.5C232 128.67 231.44 128.19 230.75 128.41C230.06 128.64 228.04 129.09 226.25 129.41C223.78 129.86 222.95 129.63 222.81 128.47C222.67 127.37 221.67 127.02 219.28 127.22C216.94 127.42 216.03 127.95 216.23 129ZM247 128.13C245.62 128.68 243.5 128.99 242.27 128.81C240.82 128.61 240.04 129.02 240.04 130C240.03 130.82 240.36 132.04 240.77 132.71C241.17 133.37 242.51 133.71 243.75 133.46C244.99 133.21 246 132.55 246 132C246 131.45 246.9 130.77 248 130.5C249.1 130.22 250 129.32 250 128.5C250 127.67 249.89 127.03 249.75 127.06C249.61 127.1 248.37 127.58 247 128.13ZM542.5 128.01C540.3 128.43 538.07 128.5 537.55 128.14C537.03 127.79 536.8 128.06 537.05 128.75C537.3 129.44 537.95 129.99 538.5 129.97C539.05 129.96 541.2 129.62 543.27 129.22C545.34 128.82 547.03 128.16 547.02 127.75C547.01 127.34 546.89 127.05 546.75 127.11C546.61 127.18 544.7 127.58 542.5 128.01Z" />
		<path id="Path 58" class="shp17" d="M108.5 129.75C108.77 130.44 109 132.12 109 133.5C109 135.99 109.03 136 118.5 136C126.28 136 128 135.73 128 134.5C128 133.33 127.56 133.22 126 134C124.33 134.83 124 134.67 124 133C124 131.18 123.58 131.07 119.48 131.75C115.7 132.38 114.94 132.23 114.76 130.86C114.62 129.8 113.38 129.09 111.27 128.86C108.94 128.6 108.14 128.86 108.5 129.75Z" />
		<path id="Path 59" class="shp16" d="M183.47 130.7C183.8 132.11 184.43 132.71 185.11 132.25C185.72 131.84 186.51 132.04 186.86 132.7C187.33 133.57 188.65 133.64 191.75 132.95C195.02 132.22 196 131.54 196 130C196 128.35 195.52 128.1 193.25 128.55C191.74 128.85 189.71 129.3 188.75 129.55C187.79 129.8 186.91 129.58 186.8 129.06C186.69 128.55 185.78 128.19 184.78 128.26C183.4 128.36 183.08 128.97 183.47 130.7Z" />
		<path id="Path 60" class="shp15" d="M199.25 128.75C196.75 128.94 196 129.46 196 131C196 132.56 196.67 133 199 133C200.65 133 202.27 132.44 202.59 131.75C202.91 131.06 203.03 130.05 202.84 129.5C202.65 128.95 201.04 128.61 199.25 128.75Z" />
		<path id="Path 61" class="shp16" d="M552.09 129C549.23 129.32 547.59 130.03 547.43 131C547.29 131.82 547.47 133.11 547.84 133.85C548.3 134.8 549.61 135.03 552.25 134.6C554.31 134.27 556.26 133.44 556.57 132.75C556.88 132.06 556.99 130.82 556.82 130C556.57 128.85 555.48 128.62 552.09 129Z" />
		<path id="Path 62" class="shp17" d="M0.96 132.52L1 136L16.5 135.88C7.97 131.96 4.47 130.43 3.21 129.94C1.1 129.12 0.93 129.31 0.96 132.52ZM163.75 130.03C162.79 130.56 161.55 130.77 161 130.5C160.44 130.22 160 131.33 160 133L160 136C178.63 135.52 179.5 135.33 179.73 133.5L179.98 131.5C178.18 135.42 178.14 135.41 178.07 133.25C178.03 132.01 177.55 131 177 131C176.45 131 175.89 131.38 175.75 131.84C175.61 132.3 174.04 132.98 172.25 133.34C169.27 133.94 169 133.79 169 131.5C169 129.77 168.46 129.01 167.25 129.03C166.29 129.05 164.71 129.5 163.75 130.03Z" />
		<path id="Path 63" class="shp16" d="M253.24 130.39C250.85 131.2 249.98 132.1 249.99 133.75C250 135.74 250.32 135.9 252.75 135.17C254.26 134.72 256.06 134.04 256.75 133.67C257.44 133.3 258 132.1 258 131C258 129.9 257.66 129.06 257.25 129.14C256.84 129.22 255.03 129.78 253.24 130.39ZM286 131.5C286 133.28 286.43 133.86 287.5 133.5C288.32 133.22 289.79 132.99 290.75 132.97C292.18 132.94 292.04 132.56 290 130.92C288.62 129.82 287.16 128.93 286.75 128.96C286.34 128.98 286 130.12 286 131.5ZM295.1 131.44C295.01 133.73 295.29 133.93 297.75 133.36C299.26 133.01 300.6 132.67 300.71 132.61C300.83 132.55 299.64 131.69 298.06 130.69L295.19 128.89L295.1 131.44ZM439.01 130.75C439.02 132.27 438.43 132.4 434.51 131.75C431.17 131.19 430 131.32 430 132.25C430 133.1 431.36 133.4 434.25 133.19C437.49 132.96 438.76 133.32 439.6 134.69C440.4 136.01 440.87 136.16 441.35 135.25C441.71 134.56 442.67 134.22 443.5 134.5C444.32 134.77 445.22 134.55 445.5 134C445.77 133.45 446.68 133.34 447.52 133.75C448.69 134.33 448.91 134.04 448.5 132.5C448.16 131.28 446.7 130.2 444.73 129.74C442.95 129.32 440.94 128.98 440.25 128.99C439.56 128.99 439.01 129.79 439.01 130.75Z" />
		<path id="Path 64" class="shp13" d="M540.5 129.95C539.4 130.39 538.16 130.58 537.75 130.37C537.34 130.17 537 131.35 537 133C537 135.7 537.23 135.91 539.25 135.15C540.49 134.68 542.74 134 544.25 133.65C546.38 133.15 547.09 133.4 547.42 134.75C547.65 135.71 547.68 135.15 547.5 133.5C547.32 131.85 547.13 130.16 547.08 129.75C547.04 129.34 545.99 129.03 544.75 129.07C543.51 129.11 541.6 129.5 540.5 129.95Z" />
		<path id="Path 65" class="shp16" d="M39.9 130.82C37.91 131 35.78 131.68 35.16 132.32C34.54 132.97 34.02 133.84 34.02 134.25C34.01 134.66 36.02 135 38.5 135C42.37 135 43.05 134.69 43.35 132.79C43.54 131.58 43.66 130.57 43.6 130.54C43.55 130.52 41.88 130.65 39.9 130.82Z" />
		<path id="Path 66" class="shp17" d="M140.03 130.75C140.04 131.16 138.61 131.96 136.85 132.51C135.08 133.07 133.49 134.09 133.32 134.76C133.08 135.68 135.35 136 142 136C149.33 136 151 135.72 151 134.5C151 133.49 150.42 133.21 149.25 133.64C148.29 133.99 146.26 134.44 144.75 134.64C142.39 134.95 142 134.65 142 132.5C142 131.12 141.55 130 141 130C140.45 130 140.01 130.34 140.03 130.75ZM215.77 133.2L216 136C230.44 136 232 135.71 232 134.5C232 133.39 230.83 133 227.5 133C225.02 133 222.9 132.6 222.77 132.11C222.65 131.62 220.97 131.03 219.05 130.81C215.74 130.42 215.56 130.56 215.77 133.2ZM247.51 130.69C246.41 130.94 245.63 131.56 245.76 132.07C245.89 132.58 244.99 133.21 243.75 133.46C242.51 133.71 241.17 133.37 240.77 132.71C240.31 131.96 240.02 132.36 240.02 133.75C240 135.79 240.48 136 245 136C249.89 136 250 135.93 250 133C250 131.35 249.89 130.05 249.75 130.12C249.61 130.18 248.6 130.44 247.51 130.69Z" />
		<path id="Path 67" class="shp16" d="M277 131.5C277 132.32 277.67 133 278.5 133C279.32 133 279.77 132.55 279.5 132C279.22 131.45 279.56 130.81 280.25 130.58C280.94 130.35 280.49 130.12 279.25 130.08C277.88 130.03 277 130.59 277 131.5Z" />
		<path id="Path 68" class="shp17" d="M29 132.59C27.62 133.35 25.94 133.76 25.25 133.49C24.56 133.22 24 133.67 24 134.5C24 135.74 25.67 135.97 33.75 135.82C39.11 135.72 41.36 135.5 38.75 135.32C34.77 135.05 34 134.67 34 133C34 131.9 33.44 131.04 32.75 131.1C32.06 131.15 30.37 131.82 29 132.59ZM514 133.5C514 135.06 514.57 136 515.5 136C516.43 136 517 135.06 517 133.5C517 131.94 516.43 131 515.5 131C514.57 131 514 131.94 514 133.5ZM183.43 134.2C183.9 135.67 185.1 136 190 136C195.33 136 196 135.78 196 134C196 132.35 195.52 132.1 193.25 132.55C191.74 132.85 189.71 133.3 188.75 133.55C187.79 133.8 186.91 133.58 186.8 133.06C186.69 132.55 185.76 132.19 184.73 132.26C183.41 132.36 183.03 132.93 183.43 134.2Z" />
		<path id="Path 69" class="shp16" d="M199.25 132.66C197.18 132.88 196 133.54 196 134.5C196 135.55 197.06 136 199.5 136C202.33 136 203 135.62 203 134C203 132.9 202.89 132.07 202.75 132.16C202.61 132.25 201.04 132.47 199.25 132.66Z" />
		<path id="Path 70" class="shp17" d="M254 134.56L250.5 135.89C256.94 135.98 258 135.58 258 134.5C258 133.67 257.89 133.05 257.75 133.12C257.61 133.18 255.92 133.83 254 134.56ZM541.5 134.47L537.5 135.79C545.85 135.97 547 135.64 547 134.5C547 133.67 546.66 133.03 546.25 133.08C545.84 133.12 543.7 133.75 541.5 134.47ZM552 134.55L547.5 135.84C555.84 135.98 557 135.63 557 134.5C557 133.67 556.89 133.06 556.75 133.13C556.61 133.2 554.47 133.84 552 134.55Z" />
	</g>
</svg>