<?xml version="1.0" encoding="UTF-8" standalone="no"?>
<svg
   xmlns:dc="http://purl.org/dc/elements/1.1/"
   xmlns:cc="http://creativecommons.org/ns#"
   xmlns:rdf="http://www.w3.org/1999/02/22-rdf-syntax-ns#"
   xmlns:svg="http://www.w3.org/2000/svg"
   xmlns="http://www.w3.org/2000/svg"
   xmlns:sodipodi="http://sodipodi.sourceforge.net/DTD/sodipodi-0.dtd"
   xmlns:inkscape="http://www.inkscape.org/namespaces/inkscape"
   width="154.94389mm"
   height="153.52229mm"
   viewBox="0 0 154.94389 153.52229"
   version="1.1"
   id="svg8"
   inkscape:version="1.0.2-2 (e86c870879, 2021-01-15)"
   sodipodi:docname="reddit.svg">
  <defs
     id="defs2" />
  <sodipodi:namedview
     id="base"
     pagecolor="#ffffff"
     bordercolor="#666666"
     borderopacity="1.0"
     inkscape:pageopacity="0.0"
     inkscape:pageshadow="2"
     inkscape:zoom="0.7"
     inkscape:cx="189.21173"
     inkscape:cy="469.69959"
     inkscape:document-units="mm"
     inkscape:current-layer="layer1"
     inkscape:document-rotation="0"
     showgrid="false"
     inkscape:window-width="1560"
     inkscape:window-height="1041"
     inkscape:window-x="2378"
     inkscape:window-y="133"
     inkscape:window-maximized="0" />
  <metadata
     id="metadata5">
    <rdf:RDF>
      <cc:Work
         rdf:about="">
        <dc:format>image/svg+xml</dc:format>
        <dc:type
           rdf:resource="http://purl.org/dc/dcmitype/StillImage" />
        <dc:title></dc:title>
      </cc:Work>
    </rdf:RDF>
  </metadata>
  <g
     inkscape:label="Warstwa 1"
     inkscape:groupmode="layer"
     id="layer1">
    <path
       style="fill:#7b0000;stroke-width:1.42857"
       d="m 195.6403,579.62716 c -37.92895,-1.07986 -56.80567,-3.3678 -77.69938,-9.41751 C 90.753476,562.3376 70.533536,550.58066 51.576314,531.62173 24.104307,504.14725 9.7582933,470.5816 4.9617579,422.55673 2.5564954,398.47426 1.537433,264.85152 3.3275262,208.27102 5.11901,151.64656 6.9961122,135.19853 14.163989,113.31694 23.174136,85.811401 34.300843,67.441687 52.316809,50.328281 78.929423,25.048899 105.11504,12.686463 146.35459,5.9322969 159.4577,3.7862849 176.43939,3.4029524 280.6403,2.9010271 405.84239,2.2979412 428.72115,3.0141899 455.25983,8.3677127 505.85,18.573029 544.34272,47.173059 565.64857,90.386398 c 13.02019,26.408012 17.04718,45.930762 19.45413,94.313192 1.95846,39.36688 0.8024,222.23033 -1.53534,242.85714 -3.8869,34.29589 -14.52183,64.22716 -30.54223,85.95903 -8.95108,12.14226 -26.74954,29.35293 -38.2884,37.02396 -18.32914,12.18518 -44.43456,21.68157 -70.06377,25.48714 -29.97787,4.45129 -155.43616,6.26506 -249.03266,3.6003 z m 228.57143,-51.52999 c 40.53684,-3.66658 66.981,-15.9138 85.23049,-39.4732 18.24443,-23.55287 23.02087,-41.99517 25.44817,-98.25781 1.79403,-41.58371 1.82291,-150.35483 0.0524,-197.36383 -2.30007,-61.07035 -9.783,-84.9059 -34.0802,-108.556585 -15.84239,-15.420836 -34.12325,-23.775464 -62.4611,-28.545648 -14.35929,-2.417138 -25.92552,-2.62908 -143.4755,-2.62908 -134.40277,0 -138.99845,0.185558 -162.77631,6.572387 -33.52104,9.003888 -59.007581,33.399033 -69.996457,66.999046 -7.671587,23.45694 -7.82648,26.61352 -7.886186,160.71428 -0.06554,147.20164 0.428204,154.17332 12.772544,180.34877 15.77383,33.44749 40.724049,51.27356 81.457839,58.19885 7.85714,1.33581 27.46428,2.96351 43.57142,3.61711 38.49033,1.56186 210.20052,0.36041 232.14286,-1.62429 z"
       id="path970"
       transform="scale(0.26458333)" />
    <path
       style="fill:#7b0000;stroke-width:0.377976"
       d="M 71.039949,130.68777 C 51.969076,128.5129 36.108872,119.05363 29.550483,105.94284 27.149416,101.14289 26.535114,98.587477 26.416536,92.906047 26.314753,88.029395 26.271658,87.782962 25.429492,87.261654 24.001898,86.377961 21.724273,84.135144 20.570544,82.476971 15.773509,75.58252 17.766352,65.11214 24.765158,60.438516 c 2.855357,-1.906733 4.957135,-2.450827 8.570015,-2.21855 3.662082,0.23544 5.934004,1.204291 8.52152,3.633968 l 1.968971,1.84886 3.072601,-1.77056 c 5.478814,-3.157116 12.446749,-5.528537 20.115998,-6.846143 2.359387,-0.405353 5.182534,-0.737005 6.273665,-0.737005 h 1.983867 l 0.237379,-3.874254 C 75.90652,43.989619 77.61907,38.75084 80.36354,35.625061 c 0.65918,-0.750766 2.463538,-2.105547 4.009689,-3.010625 5.088157,-2.978492 9.865643,-3.134418 17.515001,-0.571648 l 3.45803,1.158546 2.00388,-2.214364 c 7.52388,-8.314155 19.71534,-4.168428 21.75255,7.396994 0.7063,4.009726 -0.78042,8.976828 -3.63144,12.132569 -2.0656,2.286367 -5.70453,3.964035 -8.63318,3.98018 -3.65762,0.02016 -6.09056,-1.005338 -8.78953,-3.70486 -2.71894,-2.719486 -3.89097,-5.384051 -4.21257,-9.57716 l -0.21016,-2.740051 -3.630724,-1.19924 c -2.93842,-0.970569 -4.27939,-1.204857 -7.032519,-1.228699 -3.162168,-0.02738 -3.548222,0.05526 -5.480654,1.173221 -1.143378,0.661477 -2.537494,1.682012 -3.09804,2.267857 -2.04103,2.133164 -3.171984,6.067195 -3.403034,11.837496 l -0.113509,2.834822 3.439007,0.264655 c 8.856318,0.681551 19.683733,4.039796 26.687083,8.277296 l 1.39989,0.847032 1.62391,-1.496785 c 5.69523,-5.249368 14.12317,-4.930854 19.48293,0.736309 5.59962,5.920766 6.02746,14.261915 1.07401,20.938593 -0.89073,1.200592 -2.28335,2.594274 -3.09472,3.097064 l -1.47521,0.91417 -0.007,4.755473 c -0.008,5.697516 -0.84044,9.111574 -3.39323,13.918844 -6.50161,12.24354 -20.07168,20.82006 -37.610383,23.77041 -4.040942,0.67977 -13.970759,0.95885 -17.953871,0.50461 z m 13.985118,-4.34248 c 3.618616,-0.25795 10.662258,-1.77767 14.348044,-3.0957 11.378259,-4.06886 19.883409,-10.991 24.029689,-19.5572 C 131.35464,87.263911 120.61713,69.024867 98.692735,61.719152 91.113373,59.19353 87.926144,58.7278 78.221497,58.7278 c -7.611163,0 -9.18754,0.106547 -12.662204,0.855839 -11.231354,2.42198 -19.972515,6.843583 -26.484598,13.396892 -15.349729,15.446893 -9.712762,37.368829 12.31049,47.875019 6.559312,3.12912 14.346741,5.15914 21.708674,5.65901 4.276751,0.29039 5.782606,0.26903 11.931208,-0.16927 z M 28.869978,80.599639 c 1.373343,-3.313441 4.304006,-7.492765 7.599283,-10.837106 1.669981,-1.694847 2.964653,-3.268326 2.877047,-3.496625 -0.336809,-0.87771 -3.229337,-2.498891 -5.188453,-2.907985 -3.985606,-0.832255 -7.837085,1.10761 -9.988495,5.03088 -0.963732,1.757442 -1.111109,2.422856 -1.118062,5.048081 -0.0061,2.291924 0.185427,3.443674 0.791173,4.758489 0.75242,1.633188 3.213544,4.501927 3.86225,4.501927 0.162703,0 0.68707,-0.943948 1.165257,-2.097661 z m 101.462262,0.541689 c 1.71361,-2.00197 2.50774,-4.377682 2.50312,-7.488295 -0.0123,-8.31591 -8.88837,-13.221153 -14.92289,-8.246994 l -1.36198,1.122659 2.28122,2.064387 c 3.02971,2.741727 6.89342,7.948589 8.42347,11.351726 0.68043,1.513417 1.35146,2.751852 1.49118,2.752077 0.13971,2.27e-4 0.85336,-0.699776 1.58588,-1.55556 z M 118.89203,49.761174 c 3.43177,-1.149004 5.63207,-4.198136 5.91511,-8.197067 0.32998,-4.661945 -1.40716,-8.085598 -4.9363,-9.728737 -3.14412,-1.463879 -5.83709,-1.099024 -8.46015,1.146223 -4.27562,3.659769 -4.44157,10.932834 -0.34016,14.908077 2.11119,2.046245 5.13709,2.770275 7.8215,1.871504 z"
       id="path972" />
    <path
       style="fill:#7b0000;stroke-width:0.377976"
       d="m 70.156964,114.77952 c -6.289413,-1.04578 -16.302294,-6.15294 -17.170667,-8.75806 -0.416113,-1.24833 0.37207,-2.70928 1.816793,-3.36754 0.791956,-0.36084 1.199796,-0.24288 2.909324,0.84145 3.738618,2.37134 6.524162,3.76681 9.547773,4.78312 2.625876,0.88262 3.620709,1.01497 7.559524,1.00573 5.469871,-0.0128 8.455869,-0.85395 15.420594,-4.34373 4.109362,-2.05906 4.538559,-2.19637 5.469591,-1.74995 1.4893,0.71411 2.04054,2.03458 1.453067,3.48074 -0.37385,0.92029 -1.251278,1.57126 -4.225985,3.1353 -8.533538,4.48676 -15.957315,6.10738 -22.780014,4.97294 z"
       id="path974" />
    <path
       style="fill:#7b0000;stroke-width:0.377976"
       d="M 53.275069,90.816591 C 50.552781,89.449349 48.6414,85.812532 49.17417,83.013743 c 0.762119,-4.003635 4.599252,-6.824625 8.173556,-6.009044 5.127754,1.170045 7.182839,7.380083 3.916815,11.835794 -1.623724,2.215178 -5.570017,3.191245 -7.989472,1.976098 z"
       id="path976" />
    <path
       style="fill:#7b0000;stroke-width:0.377976"
       d="m 89.132091,91.065478 c -2.180394,-1.369909 -3.304,-3.277917 -3.47054,-5.893358 -0.269512,-4.232616 2.225225,-7.360808 6.128388,-7.684489 6.867016,-0.569468 10.144761,8.735102 4.573958,12.984154 -1.883683,1.436757 -5.426975,1.727639 -7.231806,0.593693 z"
       id="path978" />
  </g>
</svg>
