<?xml version="1.0" encoding="UTF-8" standalone="no"?>
<svg
   xmlns:dc="http://purl.org/dc/elements/1.1/"
   xmlns:cc="http://creativecommons.org/ns#"
   xmlns:rdf="http://www.w3.org/1999/02/22-rdf-syntax-ns#"
   xmlns:svg="http://www.w3.org/2000/svg"
   xmlns="http://www.w3.org/2000/svg"
   xmlns:sodipodi="http://sodipodi.sourceforge.net/DTD/sodipodi-0.dtd"
   xmlns:inkscape="http://www.inkscape.org/namespaces/inkscape"
   width="154.94389mm"
   height="153.52229mm"
   viewBox="0 0 154.94389 153.52229"
   version="1.1"
   id="svg8"
   inkscape:version="1.0.2-2 (e86c870879, 2021-01-15)"
   sodipodi:docname="twitter.svg">
  <defs
     id="defs2" />
  <sodipodi:namedview
     id="base"
     pagecolor="#ffffff"
     bordercolor="#666666"
     borderopacity="1.0"
     inkscape:pageopacity="0.0"
     inkscape:pageshadow="2"
     inkscape:zoom="0.58441991"
     inkscape:cx="48.092911"
     inkscape:cy="289.99044"
     inkscape:document-units="mm"
     inkscape:current-layer="layer1"
     inkscape:document-rotation="0"
     showgrid="false"
     inkscape:window-width="1560"
     inkscape:window-height="1041"
     inkscape:window-x="2242"
     inkscape:window-y="163"
     inkscape:window-maximized="0" />
  <metadata
     id="metadata5">
    <rdf:RDF>
      <cc:Work
         rdf:about="">
        <dc:format>image/svg+xml</dc:format>
        <dc:type
           rdf:resource="http://purl.org/dc/dcmitype/StillImage" />
        <dc:title></dc:title>
      </cc:Work>
    </rdf:RDF>
  </metadata>
  <g
     inkscape:label="Warstwa 1"
     inkscape:groupmode="layer"
     id="layer1">
    <path
       style="fill:#7b0000;stroke-width:0.193598"
       d="m 59.533196,128.01931 c -14.915565,-1.58493 -27.324211,-8.31579 -36.813135,-19.96869 -2.483986,-3.05044 -5.647833,-7.49788 -5.480583,-7.70404 0.02886,-0.0357 0.569066,0.38026 1.200375,0.92421 0.631302,0.54394 1.892188,1.50857 2.801969,2.14362 8.17023,5.70303 17.043574,7.30921 25.5616,4.62695 4.666578,-1.46946 9.791444,-4.98242 13.490426,-9.247322 1.309439,-1.509811 1.292387,-1.704424 -0.150315,-1.71513 -4.11684,-0.03051 -7.668844,-3.733821 -6.910531,-7.20487 0.395757,-1.811548 1.874343,-3.873369 3.582606,-4.995813 l 0.53783,-0.353393 -0.959076,-0.149366 c -0.527501,-0.08218 -1.692533,-0.258848 -2.58895,-0.392648 -1.996274,-0.297974 -4.310861,-1.192057 -5.897677,-2.278185 -1.454068,-0.995264 -3.788501,-3.825637 -4.482037,-5.434224 l -0.492357,-1.141918 0.710316,-0.832851 c 1.238353,-1.45197 3.673147,-2.619595 6.119736,-2.934784 0.587924,-0.07573 1.006015,-0.20522 0.929081,-0.287719 -0.07688,-0.0825 -0.880981,-0.463327 -1.786765,-0.84627 -5.425342,-2.293719 -9.184862,-6.368062 -10.721783,-11.619624 -0.573208,-1.958572 -0.568901,-2.317795 0.0312,-2.610165 0.707231,-0.344528 4.006989,-1.030289 5.013438,-1.041884 1.476766,-0.01695 1.447039,-0.240035 -0.216537,-1.623668 -3.081012,-2.562553 -6.163183,-6.923834 -7.243239,-10.249204 -0.851869,-2.622798 -1.286279,-6.491905 -0.757003,-6.742242 0.132358,-0.0626 1.132896,0.319185 2.223361,0.848426 1.090464,0.529234 3.865981,1.877423 6.16781,2.995973 15.470668,7.517795 23.543677,13.008968 30.682471,20.869855 0.632623,0.696629 1.172579,1.228599 1.199883,1.182142 0.02727,-0.0465 0.507023,-1.680331 1.066037,-3.630863 3.502512,-12.221002 7.711846,-21.085956 13.486727,-28.403396 2.071187,-2.62443 3.640725,-4.266578 4.077925,-4.266578 0.263521,0 0.141013,0.735063 -0.367232,2.203465 -0.276263,0.798164 -0.41891,1.387685 -0.317001,1.310056 0.101909,-0.07764 0.781271,-0.672367 1.509695,-1.321637 1.551846,-1.383209 3.710073,-2.689592 5.283939,-3.19838 1.99169,-0.643863 2.26103,0.08048 0.70515,1.896417 -0.55148,0.643662 -1.30108,1.394818 -1.665785,1.669239 -0.364696,0.274421 -0.62471,0.546262 -0.577791,0.604089 0.04694,0.0578 0.698424,-0.146039 1.447816,-0.453041 3.20599,-1.313405 6.35008,-1.789935 7.16544,-1.086014 0.51555,0.445071 0.49411,0.593489 -0.22792,1.578559 -1.07415,1.465457 -4.70472,3.44414 -8.138912,4.435775 -0.73878,0.213317 -1.31028,0.453561 -1.270014,0.533875 0.0403,0.08031 0.801667,0.20225 1.691991,0.270981 4.087845,0.315552 8.515835,2.22866 12.343185,5.332847 2.20231,1.786193 5.47157,5.818514 6.95384,8.576911 1.99771,3.717582 3.60795,8.472569 4.3268,12.77692 0.20535,1.229617 0.41342,1.945462 0.60156,2.069574 0.50907,0.335807 3.48802,0.847835 5.73022,0.984912 2.39684,0.146621 5.01721,-0.14339 7.03382,-0.778271 0.6871,-0.216298 1.2681,-0.371978 1.29115,-0.345933 0.0229,0.026 -0.16362,0.555611 -0.41478,1.176798 -1.04058,2.573784 -4.35659,4.630067 -9.91557,6.148728 -1.1509,0.314412 -2.12524,0.611853 -2.16521,0.660975 -0.16088,0.197729 0.1959,0.334451 2.18303,0.836581 2.72875,0.689523 5.12073,0.972189 8.22695,0.972189 h 2.54044 l -0.42276,0.557452 c -0.71893,0.948016 -2.45723,2.464255 -3.7359,3.258658 -2.41218,1.498637 -5.04987,2.338625 -8.14434,2.593597 l -1.76932,0.145815 -0.98198,3.546409 c -1.62093,5.854065 -3.14936,9.741936 -5.66127,14.400584 -5.37357,9.965921 -12.63466,17.391591 -22.373753,22.880881 -6.961238,3.92359 -14.233882,6.39572 -22.189801,7.54278 -2.789193,0.40213 -10.467288,0.57938 -13.078551,0.30191 z"
       id="path855" />
    <path
       style="fill:#7b0000;stroke-width:1.7111"
       d="M 161.88096,576.47566 C 116.93314,572.72622 80.986635,558.26857 54.516366,533.29373 28.656423,508.89475 13.648236,479.30834 7.0214483,439.66455 0.58664016,401.16927 0.51348608,176.73324 6.9238359,140.19038 14.004568,99.825935 27.562923,72.646696 52.606431,48.614498 66.765138,35.027551 75.891882,28.431204 90.870372,20.959261 117.1982,7.8257614 138.85044,3.9114401 198.66957,1.4711797 c 53.01659,-2.16275788 208.41749,-0.86864771 233.56494,1.9450261 52.40071,5.8629597 91.70184,26.2574232 118.37482,61.4280522 17.50337,23.079698 28.05512,52.373862 32.09877,89.113852 2.96264,26.91805 4.24261,172.48858 2.00855,228.43165 -2.46819,61.80574 -5.83919,80.14514 -20.0707,109.19155 -7.58065,15.47204 -10.94356,20.0956 -26.23114,36.06446 -29.4856,30.7996 -64.43603,45.25224 -118.3306,48.93184 -28.80239,1.96646 -234.38052,1.88529 -258.20325,-0.10198 z m 257.13372,-49.53277 c 40.19829,-3.26419 63.49432,-12.3176 83.25547,-32.35511 19.59079,-19.86479 27.77756,-41.27585 30.7964,-80.5427 2.69546,-35.06034 3.64306,-135.29033 1.88469,-199.34297 -1.87603,-68.33768 -3.96358,-83.15486 -14.82587,-105.23256 C 511.37767,91.689775 493.6748,74.007075 476.50258,65.896453 447.3759,52.139615 435.76892,51.20726 293.63554,51.20726 150.56606,51.20726 139.28401,52.138431 110.548,66.318503 84.497916,79.173184 65.637204,104.642 58.318643,136.84713 54.322622,154.4315 52.582454,201.972 52.493781,295.97928 c -0.0842,89.2657 1.753351,130.29675 6.701755,149.6448 12.748097,49.84459 47.131954,76.15607 106.107614,81.19645 24.10322,2.05999 228.63506,2.15863 253.71153,0.12234 z"
       id="path853"
       transform="scale(0.26458333)" />
  </g>
</svg>
